<svg width="18" height="18" viewBox="0 0 18 18" fill="none" xmlns="http://www.w3.org/2000/svg">
<path d="M9 0C4.05 0 0 4.05 0 9C0 13.95 4.05 18 9 18C13.95 18 18 13.95 18 9C18 4.05 13.95 0 9 0ZM5.4 15.21V13.41C5.4 13.14 5.58 12.87 5.76 12.69C7.65 11.34 10.26 11.34 12.24 12.69C12.51 12.87 12.6 13.14 12.6 13.41V15.21C11.52 15.84 10.35 16.2 9 16.2C7.65 16.2 6.48 15.84 5.4 15.21ZM14.4 13.77V13.5C14.4 12.6 13.95 11.79 13.23 11.25C10.71 9.45 7.29 9.54 4.77 11.25C4.05 11.7 3.6 12.6 3.6 13.5V13.77C2.52 12.51 1.8 10.8 1.8 9C1.8 5.04 5.04 1.8 9 1.8C12.96 1.8 16.2 5.04 16.2 9C16.2 10.8 15.48 12.51 14.4 13.77Z" fill="white"/>
<path d="M9.00006 3.6C7.47005 3.6 6.30005 4.77 6.30005 6.3C6.30005 7.83 7.47005 9 9.00006 9C10.5301 9 11.7001 7.83 11.7001 6.3C11.7001 4.77 10.5301 3.6 9.00006 3.6ZM9.00006 7.2C8.46005 7.2 8.10005 6.84 8.10005 6.3C8.10005 5.76 8.46005 5.4 9.00006 5.4C9.54006 5.4 9.90006 5.76 9.90006 6.3C9.90006 6.84 9.54006 7.2 9.00006 7.2Z" fill="white"/>
</svg>
