<svg width="30" height="30" viewBox="0 0 30 30" fill="none" xmlns="http://www.w3.org/2000/svg">
<path d="M23.7533 21.2469C21.6907 21.2469 20.0127 22.925 20.0127 24.9876C20.0127 27.0501 21.6908 28.7282 23.7533 28.7282C25.8159 28.7282 27.494 27.0501 27.494 24.9876C27.494 22.925 25.8159 21.2469 23.7533 21.2469ZM23.7533 26.4838C22.9282 26.4838 22.2571 25.8127 22.2571 24.9876C22.2571 24.1624 22.9282 23.4913 23.7533 23.4913C24.5785 23.4913 25.2496 24.1624 25.2496 24.9876C25.2496 25.8127 24.5785 26.4838 23.7533 26.4838Z" fill="white"/>
<path d="M29.7615 6.78959C29.5491 6.51765 29.2232 6.35904 28.878 6.35904H6.92699L5.91701 2.13324C5.79619 1.62827 5.34466 1.27179 4.82546 1.27179H1.12219C0.502386 1.27173 0 1.77411 0 2.39392C0 3.01373 0.502386 3.51611 1.12219 3.51611H3.93969L7.58682 18.7765C7.70764 19.2819 8.15917 19.638 8.67837 19.638H26.1473C26.6632 19.638 27.1128 19.2863 27.2366 18.7858L29.9673 7.75088C30.0499 7.41578 29.974 7.06152 29.7615 6.78959ZM25.2693 17.3936H9.56414L7.46336 8.60342H27.4441L25.2693 17.3936Z" fill="white"/>
<path d="M10.1746 21.2469C8.11198 21.2469 6.43396 22.925 6.43396 24.9876C6.43396 27.0501 8.11204 28.7282 10.1746 28.7282C12.2372 28.7282 13.9153 27.0501 13.9153 24.9876C13.9153 22.925 12.2372 21.2469 10.1746 21.2469ZM10.1746 26.4838C9.34943 26.4838 8.67835 25.8127 8.67835 24.9876C8.67835 24.1624 9.34943 23.4913 10.1746 23.4913C10.9998 23.4913 11.6709 24.1624 11.6709 24.9876C11.6709 25.8127 10.9998 26.4838 10.1746 26.4838Z" fill="white"/>
</svg>
