<svg width="50" height="50" viewBox="0 0 50 50" fill="none" xmlns="http://www.w3.org/2000/svg">
<g clip-path="url(#clip0_72_96)">
<path d="M44.9684 9.87292L25.4612 0.111958C25.3268 0.0412544 25.1741 0.000922311 25.012 4.34029e-05C25.0114 4.34029e-05 25.0109 4.34029e-05 25.0103 4.34029e-05C25.0096 -5.42536e-05 25.0091 4.34029e-05 25.0086 4.34029e-05C25.0081 4.34029e-05 25.0073 4.34029e-05 25.0066 4.34029e-05H24.9936C24.993 4.34029e-05 24.9924 4.34029e-05 24.9918 4.34029e-05C24.9913 -5.42536e-05 24.9907 4.34029e-05 24.9901 4.34029e-05C24.9893 4.34029e-05 24.9888 4.34029e-05 24.9881 4.34029e-05C24.8259 0.000824655 24.6733 0.0411568 24.5389 0.111958L5.03156 9.87292C4.70089 10.0384 4.492 10.3764 4.492 10.7463V29.3835C4.492 32.9439 5.53663 35.9541 7.68576 38.5864C9.67785 41.0266 12.3637 42.8072 14.7282 44.2272C19.6019 47.1538 24.472 49.8511 24.5206 49.878C24.6654 49.9581 24.8281 50.0001 24.9934 50.0001H25.0064C25.1717 50.0001 25.3344 49.9582 25.4794 49.878C25.5281 49.8511 30.3982 47.1539 35.2718 44.2272C37.6364 42.8072 40.3222 41.0265 42.3143 38.5864C44.4633 35.9541 45.508 32.9439 45.508 29.3835V10.7463C45.508 10.3764 45.2992 10.0384 44.9684 9.87292ZM43.5546 29.3835C43.5546 36.388 38.76 39.854 34.266 42.5528C30.297 44.9363 26.3293 47.1671 24.9998 47.9095C23.6705 47.1673 19.7036 44.9369 15.7337 42.5528C11.2398 39.854 6.44513 36.388 6.44513 29.3835V11.3497L24.9998 2.06528L43.5546 11.3497V29.3835Z" fill="white"/>
<path d="M20.4928 6.94125L9.32843 12.5276C8.99777 12.6931 8.78888 13.0312 8.78888 13.4009V29.3834C8.78888 34.6229 11.7778 37.4429 16.9404 40.5434C17.0979 40.6379 17.2711 40.6829 17.4422 40.6829C17.7738 40.6828 18.0972 40.514 18.2804 40.209C18.558 39.7466 18.4082 39.1467 17.9459 38.869C13.168 35.9996 10.742 33.7447 10.742 29.3834V14.0044L21.3667 8.68803C21.8492 8.44662 22.0445 7.8599 21.8032 7.37768C21.5617 6.89515 20.9747 6.70014 20.4928 6.94125Z" fill="white"/>
<path d="M40.6713 12.5275L29.4857 6.93051C29.0034 6.6893 28.4168 6.88462 28.1754 7.36694C27.9341 7.84927 28.1295 8.43589 28.6118 8.6773L39.2577 14.0044V29.3834C39.2577 33.7447 36.8317 35.9996 32.0539 38.8689C31.5915 39.1466 31.4418 39.7466 31.7194 40.2089C31.9026 40.514 32.226 40.683 32.5576 40.683C32.7287 40.683 32.902 40.6379 33.0594 40.5433C38.2221 37.4428 41.2108 34.6228 41.2108 29.3833V13.4008C41.2108 13.0311 41.002 12.693 40.6713 12.5275Z" fill="white"/>
<path d="M34.2953 22C34.1301 21.4867 33.5802 21.2041 33.0665 21.3697C32.5531 21.5349 32.271 22.0851 32.4362 22.5985C33.3395 25.4046 32.6068 28.4416 30.5242 30.5242C27.4781 33.5704 22.5216 33.5704 19.4756 30.5242C18 29.0486 17.1874 27.0867 17.1874 25C17.1874 22.9133 18.0001 20.9514 19.4756 19.4757C21.523 17.4283 24.5168 16.682 27.2888 17.5285C27.8046 17.6858 28.3505 17.3955 28.5079 16.8796C28.6653 16.3637 28.3748 15.8179 27.859 15.6604C24.395 14.6029 20.6534 15.5358 18.0945 18.0946C16.2499 19.9391 15.2342 22.3915 15.2342 25C15.2342 27.6085 16.25 30.0609 18.0945 31.9055C19.9983 33.8093 22.4992 34.7612 24.9999 34.7612C27.5007 34.7612 30.0015 33.8092 31.9053 31.9054C34.5084 29.3023 35.4242 25.5067 34.2953 22Z" fill="white"/>
<path d="M31.9165 18.0955C31.5384 17.7111 30.92 17.7057 30.5354 18.084L30.5296 18.0897C30.1451 18.4678 30.1427 19.0832 30.5209 19.4678C30.7114 19.6615 30.9634 19.7583 31.216 19.7583C31.4646 19.7583 31.7138 19.6643 31.9049 19.4766C32.2894 19.0985 32.2947 18.4801 31.9165 18.0955Z" fill="white"/>
<path d="M30.5385 21.6087C30.157 21.2274 29.5388 21.2274 29.1574 21.6087L24.0891 26.677L21.9002 24.4881C21.5187 24.1068 20.9005 24.1068 20.5191 24.4881C20.1377 24.8695 20.1377 25.4879 20.5191 25.8693L23.3985 28.7487C23.5892 28.9393 23.839 29.0347 24.089 29.0347C24.339 29.0347 24.5888 28.9393 24.7796 28.7488L30.5385 22.9899C30.9199 22.6084 30.9199 21.99 30.5385 21.6087Z" fill="white"/>
</g>
<defs>
<clipPath id="clip0_72_96">
<rect width="50" height="50" fill="white"/>
</clipPath>
</defs>
</svg>
