<svg width="50" height="48" viewBox="0 0 50 48" fill="none" xmlns="http://www.w3.org/2000/svg">
<path d="M20.7329 23.3059C18.7688 23.3059 17.1709 24.9039 17.1709 26.868C17.1709 28.8322 18.7687 30.4301 20.7329 30.4301C22.6971 30.4301 24.295 28.8322 24.295 26.868C24.295 24.9039 22.697 23.3059 20.7329 23.3059ZM20.7329 28.4769C19.8458 28.4769 19.124 27.7551 19.124 26.8679C19.124 25.9807 19.8458 25.2589 20.7329 25.2589C21.6201 25.2589 22.3419 25.9807 22.3419 26.8679C22.3419 27.7551 21.6201 28.4769 20.7329 28.4769Z" fill="white"/>
<path d="M31.4899 23.3059C29.5259 23.3059 27.9278 24.9039 27.9278 26.868C27.9278 28.8322 29.5258 30.4301 31.4899 30.4301C33.4525 30.4301 35.0491 28.8322 35.0491 26.868C35.0491 24.9039 33.4525 23.3059 31.4899 23.3059ZM31.4899 28.4769C30.6027 28.4769 29.881 27.7551 29.881 26.8679C29.881 25.9807 30.6027 25.2589 31.4899 25.2589C32.3755 25.2589 33.096 25.9807 33.096 26.8679C33.096 27.7551 32.3755 28.4769 31.4899 28.4769Z" fill="white"/>
<path d="M46.0505 0.91626H36.5723C36.033 0.91626 35.5957 1.35356 35.5957 1.89282C35.5957 2.43208 36.033 2.86939 36.5723 2.86939H46.0505C47.1513 2.86939 48.0469 3.76372 48.0469 4.86314V15.6343C48.0469 16.7337 47.1513 17.6281 46.0505 17.6281H18.3218C17.2225 17.6281 16.3281 16.7337 16.3281 15.6343V4.86314C16.3281 3.76372 17.2225 2.86939 18.3218 2.86939H27.8027C28.342 2.86939 28.7793 2.43208 28.7793 1.89282C28.7793 1.35356 28.342 0.91626 27.8027 0.91626H18.3218C16.1455 0.91626 14.375 2.68687 14.375 4.86314V8.13589H7.8499C6.11787 8.13589 4.70869 9.54507 4.70869 11.2772V12.8447H3.14121C1.40918 12.8447 0 14.2538 0 15.986V37.7498C0 39.4819 1.40918 40.8911 3.14121 40.8911H6.07051V46.1071C6.07051 46.4518 6.25225 46.7711 6.54863 46.9469C6.70205 47.0381 6.87451 47.0837 7.04707 47.0837C7.20791 47.0837 7.36904 47.044 7.51494 46.9642L18.6402 40.8911H38.3245C40.0565 40.8911 41.4657 39.4819 41.4657 37.7498V36.1823H43.0331C44.7652 36.1823 46.1744 34.7731 46.1744 33.041V19.5781C48.295 19.5123 50 17.7691 50 15.6343V4.86314C50 2.68687 48.2282 0.91626 46.0505 0.91626ZM6.66182 11.2772C6.66182 10.622 7.19482 10.089 7.8499 10.089H14.375V12.8447H6.66182V11.2772ZM39.5126 37.7498C39.5126 38.3938 38.9686 38.938 38.3245 38.938H18.391C18.2275 38.938 18.0666 38.979 17.9231 39.0574L8.02363 44.4614V39.9144C8.02363 39.3752 7.58633 38.9379 7.04707 38.9379H3.14121C2.48613 38.9379 1.95312 38.4048 1.95312 37.7497V15.986C1.95312 15.3308 2.48613 14.7978 3.14121 14.7978H14.375V15.6343C14.375 17.8106 16.1455 19.5812 18.3218 19.5812H39.5126V37.7498ZM43.0331 34.2292H41.4657V19.5812H44.2213V33.041C44.2213 33.685 43.6772 34.2292 43.0331 34.2292Z" fill="white"/>
<path d="M20.5197 5.30103C19.9805 5.30103 19.5432 5.73833 19.5432 6.27759V14.2114C19.5432 14.6792 19.875 15.0814 20.3344 15.1702C20.413 15.1853 20.4676 15.1959 21.3522 15.1959C21.7785 15.1959 22.3977 15.1935 23.305 15.1879C23.8442 15.1846 24.2789 14.7447 24.2755 14.2053C24.2721 13.668 23.8355 13.2348 23.299 13.2348C23.297 13.2348 23.2949 13.2348 23.2929 13.2348C22.7427 13.2382 22.0467 13.2413 21.4963 13.2419V6.27759C21.4963 5.73833 21.0591 5.30103 20.5197 5.30103Z" fill="white"/>
<path d="M26.8311 5.30103C26.2919 5.30103 25.8546 5.73833 25.8546 6.27759V14.2197C25.8546 14.7589 26.2919 15.1962 26.8311 15.1962C27.3704 15.1962 27.8077 14.7589 27.8077 14.2197V6.27759C27.8077 5.73833 27.3704 5.30103 26.8311 5.30103Z" fill="white"/>
<path d="M43.8553 7.32642C44.3945 7.32642 44.8318 6.88911 44.8318 6.34985C44.8318 5.8106 44.3945 5.37329 43.8553 5.37329H40.5391C39.9998 5.37329 39.5625 5.8106 39.5625 6.34985V14.22C39.5625 14.7592 39.9998 15.1965 40.5391 15.1965H43.8553C44.3945 15.1965 44.8318 14.7592 44.8318 14.22C44.8318 13.6807 44.3945 13.2434 43.8553 13.2434H41.5156V11.26H43.6117C44.151 11.26 44.5883 10.8227 44.5883 10.2834C44.5883 9.74419 44.151 9.30689 43.6117 9.30689H41.5156V7.32642H43.8553Z" fill="white"/>
<path d="M32.902 14.4243C33.0641 14.8859 33.5017 15.1954 33.9914 15.1954H33.9948C34.4865 15.1938 34.9245 14.8806 35.0845 14.4161C35.0856 14.4126 35.0867 14.4093 35.0879 14.4059L37.6817 6.59946C37.8517 6.08765 37.5747 5.53491 37.0629 5.3647C36.5512 5.19477 35.9984 5.47173 35.8281 5.98354L33.9752 11.5601L32.0304 5.95737C31.8535 5.448 31.2974 5.17817 30.7875 5.35503C30.2779 5.53198 30.0083 6.08833 30.1852 6.5979L32.902 14.4243Z" fill="white"/>
<path d="M9.97578 23.3059C8.01318 23.3059 6.4166 24.9039 6.4166 26.868C6.4166 28.8322 8.01328 30.4301 9.97578 30.4301C11.9398 30.4301 13.5379 28.8322 13.5379 26.868C13.5379 24.9039 11.9399 23.3059 9.97578 23.3059ZM9.97578 28.4769C9.09023 28.4769 8.36972 27.7551 8.36972 26.8679C8.36972 25.9807 9.09023 25.2589 9.97578 25.2589C10.863 25.2589 11.5848 25.9807 11.5848 26.8679C11.5848 27.7551 10.863 28.4769 9.97578 28.4769Z" fill="white"/>
<path d="M32.1876 2.86939H32.1932C32.7324 2.86939 33.167 2.43208 33.167 1.89282C33.167 1.35356 32.7269 0.91626 32.1877 0.91626C31.6484 0.91626 31.2111 1.35356 31.2111 1.89282C31.2111 2.43208 31.6482 2.86939 32.1876 2.86939Z" fill="white"/>
</svg>
