<svg width="50" height="50" viewBox="0 0 50 50" fill="none" xmlns="http://www.w3.org/2000/svg">
<path d="M19.4639 17.4667C18.9587 17.265 18.3858 17.5111 18.1842 18.0163L16.3652 22.5745L14.5482 18.0167C14.3467 17.5115 13.7737 17.2652 13.2687 17.4666C12.7635 17.668 12.5172 18.2408 12.7186 18.7461L15.4499 25.5973C15.6036 25.983 15.9737 26.2177 16.365 26.2177C16.4863 26.2177 16.6098 26.1951 16.7293 26.1474C16.9608 26.0552 17.137 25.8845 17.2416 25.6785C17.2485 25.6656 17.2555 25.6513 17.2624 25.6359C17.2659 25.628 17.2696 25.6201 17.273 25.6121C17.2751 25.607 17.2772 25.6031 17.2793 25.5977L20.0134 18.7465C20.2151 18.2412 19.969 17.6682 19.4639 17.4667Z" fill="white"/>
<path d="M24.2187 17.3967H22.1895C21.6456 17.3967 21.2048 17.8376 21.2048 18.3815V22.5155V25.1913C21.2048 25.7352 21.6457 26.176 22.1895 26.176C22.7335 26.176 23.1743 25.7351 23.1743 25.1913V23.5002H24.2187C25.8807 23.5002 27.2327 22.1486 27.2327 20.4872V20.4125C27.2327 18.7496 25.8807 17.3967 24.2187 17.3967ZM25.2632 20.4873C25.2632 21.0626 24.7947 21.5307 24.2188 21.5307H23.1745V19.3663H24.2187C24.7849 19.3663 25.2631 19.8454 25.2631 20.4125V20.4873H25.2632Z" fill="white"/>
<path d="M34.5332 17.3966C33.9893 17.3966 33.5484 17.8375 33.5484 18.3813V22.2765L30.1217 17.7841C29.8655 17.4481 29.4236 17.3132 29.0235 17.4483C28.6233 17.5836 28.3539 17.9589 28.3539 18.3813V25.1911C28.3539 25.7351 28.7948 26.1759 29.3387 26.1759C29.8826 26.1759 30.3234 25.735 30.3234 25.1911V21.296L33.7502 25.7884C33.9401 26.0373 34.232 26.176 34.5333 26.176C34.6385 26.176 34.7448 26.1591 34.8483 26.1241C35.2485 25.9889 35.518 25.6136 35.518 25.1911V18.3813C35.5181 17.8374 35.0772 17.3966 34.5332 17.3966Z" fill="white"/>
<path d="M46.051 32.7126L43.6467 31.4144C45.1048 28.4398 45.874 25.1399 45.874 21.8071C45.874 15.9825 43.6073 10.5062 39.4914 6.3874C35.3755 2.26855 29.9034 0 24.0833 0C18.2633 0 12.7918 2.26846 8.67656 6.3874C4.56162 10.5062 2.29541 15.9822 2.29541 21.807C2.29541 27.6319 4.56162 33.1085 8.67646 37.228C12.7918 41.3479 18.2634 43.6169 24.0833 43.6169C26.5448 43.6169 28.9521 43.209 31.2534 42.4049C31.3918 42.6958 31.5368 42.9859 31.6914 43.2745C33.2248 46.1346 35.0683 48.2229 37.1706 49.4815C37.1712 49.4819 37.1718 49.4822 37.1723 49.4826C37.751 49.8275 38.1899 50 38.6286 50C39.0676 50 39.5063 49.8272 40.0843 49.4816C42.1892 48.2214 44.0337 46.133 45.5663 43.2744C46.9881 40.6215 47.7272 37.8492 47.704 35.2562C47.6879 33.6711 47.0959 33.2755 46.051 32.7126ZM24.0833 41.6474C13.1555 41.6474 4.26504 32.7471 4.26504 21.8071C4.26504 10.8687 13.1555 1.96963 24.0833 1.96963C35.0127 1.96963 43.9044 10.8687 43.9044 21.8071C43.9044 24.8139 43.2167 27.7906 41.9124 30.4779L39.9432 29.4146C41.0739 27.0526 41.6691 24.4432 41.6691 21.8072C41.6691 18.8123 40.9065 15.9515 39.5463 13.4387C39.5142 13.3552 39.4713 13.2774 39.4189 13.2067C37.1664 9.19033 33.3718 6.09707 28.7217 4.82754C28.1972 4.68418 27.6556 4.99355 27.5123 5.51816C27.369 6.04287 27.6783 6.58428 28.2029 6.72754C31.7891 7.70664 34.8019 9.90752 36.8427 12.8062H11.3258C13.366 9.90732 16.3783 7.70635 19.9637 6.72754C20.4883 6.58428 20.7976 6.04287 20.6543 5.51816C20.511 4.99355 19.97 4.68437 19.4449 4.82754C14.7998 6.0957 11.0086 9.18457 8.75576 13.1959C8.69726 13.2728 8.65 13.3584 8.61601 13.4507C7.26015 15.9604 6.50039 18.8171 6.50039 21.8072C6.50039 24.84 7.2706 27.6962 8.62558 30.1899C8.65664 30.2674 8.69756 30.3396 8.74629 30.4058C11.7613 35.7735 17.5059 39.4083 24.0834 39.4083C26.0776 39.4083 28.0241 39.0775 29.8867 38.4255C30.0392 39.1422 30.2436 39.863 30.4985 40.5827C28.4381 41.2894 26.2848 41.6474 24.0833 41.6474ZM38.0295 28.8385H10.1414C9.07295 26.7236 8.46992 24.3347 8.46992 21.807C8.46992 19.3051 9.06885 16.9085 10.1448 14.7756H38.0241C39.1004 16.9086 39.6995 19.3052 39.6995 21.807C39.6995 24.2521 39.1216 26.6698 38.0295 28.8385ZM31.2298 32.7002L31.2033 32.7145C30.1579 33.2775 29.5658 33.6733 29.5537 35.2573C29.5502 35.6462 29.566 36.0395 29.5966 36.4354C27.8345 37.101 25.9834 37.4387 24.0833 37.4387C18.8188 37.4387 14.155 34.8163 11.3253 30.8082H34.7324L31.2298 32.7002ZM43.8305 42.3438C42.4685 44.8841 40.8678 46.717 39.073 47.7914C38.7954 47.9574 38.6778 48.0092 38.6283 48.0242C38.5786 48.0092 38.4602 47.9573 38.1807 47.7906C36.3889 46.7174 34.7896 44.8848 33.4273 42.3439C32.1612 39.9815 31.5028 37.5371 31.5231 35.2735C31.5257 34.9345 31.556 34.8173 31.5666 34.7867C31.6371 34.7177 31.9023 34.5748 32.1373 34.4483L38.6275 30.9424L45.1168 34.4464C45.3528 34.5735 45.6193 34.7171 45.6896 34.7861C45.7002 34.8163 45.731 34.9335 45.7345 35.2749C45.7549 37.5372 45.0965 39.9816 43.8305 42.3438Z" fill="white"/>
<path d="M24.0833 6.17827C24.6272 6.17827 25.0681 5.73735 25.0681 5.19351C25.0681 4.64966 24.6272 4.20874 24.0833 4.20874H24.0806C23.5366 4.20874 23.0972 4.64966 23.0972 5.19351C23.0972 5.73735 23.5395 6.17827 24.0833 6.17827Z" fill="white"/>
<path d="M41.1538 36.5188L37.941 39.8169L36.7715 38.7206C36.3748 38.3487 35.7516 38.3688 35.3795 38.7655C35.0075 39.1623 35.0276 39.7855 35.4244 40.1575L37.2987 41.9146C37.4886 42.0926 37.7305 42.1809 37.9721 42.1809C38.2286 42.1809 38.4848 42.0812 38.6776 41.8833L42.5645 37.8931C42.944 37.5035 42.9359 36.88 42.5464 36.5005C42.1568 36.121 41.5333 36.1292 41.1538 36.5188Z" fill="white"/>
</svg>
