<svg width="71" height="80" viewBox="0 0 71 80" fill="none" xmlns="http://www.w3.org/2000/svg">
<g clip-path="url(#clip0_92_588)">
<path d="M7.9787e-08 24.9245V55.0751C-0.0002278 56.9269 0.487686 58.7461 1.41472 60.35C2.34175 61.9539 3.67524 63.286 5.28121 64.2124L30.2188 78.586C31.8253 79.512 33.6476 79.9996 35.5026 79.9996C37.3576 79.9996 39.18 79.512 40.7865 78.586L65.7188 64.2124C67.3248 63.286 68.6583 61.9539 69.5853 60.35C70.5123 58.7461 71.0002 56.9269 71 55.0751V24.9245C71.0002 23.0727 70.5123 21.2534 69.5853 19.6495C68.6583 18.0456 67.3248 16.7136 65.7188 15.7872L40.7865 1.41358C39.18 0.487528 37.3576 0 35.5026 0C33.6476 0 31.8253 0.487528 30.2188 1.41358L5.28121 15.7872C3.67524 16.7136 2.34175 18.0456 1.41472 19.6495C0.487686 21.2534 -0.0002278 23.0727 7.9787e-08 24.9245Z" fill="#8624AA"/>
<path opacity="0.1" d="M48.7266 20.0654C47.1201 19.1394 45.2978 18.6519 43.4428 18.6519C41.5878 18.6519 39.7655 19.1394 38.159 20.0654L13.2266 34.439C11.6193 35.3643 10.2845 36.696 9.35647 38.3001C8.42844 39.9041 7.93996 41.7239 7.94019 43.5764V65.7468L30.2188 78.5862C31.8253 79.5122 33.6476 79.9998 35.5026 79.9998C37.3576 79.9998 39.18 79.5122 40.7865 78.5862L65.7188 64.2126C67.3248 63.2862 68.6583 61.9542 69.5853 60.3502C70.5123 58.7463 71.0002 56.9271 71 55.0753V32.9048L48.7266 20.0654Z" fill="white"/>
<path opacity="0.1" d="M53.2106 64.6051L28.2731 50.2315C26.6666 49.3054 24.8442 48.8179 22.9892 48.8179C21.1342 48.8179 19.3119 49.3054 17.7054 50.2315L1.10657 59.7982C2.03031 61.6459 3.4786 63.1812 5.2707 64.2123L30.203 78.586C31.8095 79.512 33.6319 79.9995 35.4869 79.9995C37.3419 79.9995 39.1642 79.512 40.7707 78.586L57.3695 69.014C56.4461 67.1691 54.9999 65.6359 53.2106 64.6051Z" fill="white"/>
<path d="M40.627 22H28.3223C22.6686 22 18 26.6686 18 32.3223C18 37.4923 21.9136 41.7801 26.8933 42.477C27.2065 42.6242 27.9434 42.5762 28.3223 42.5762V45.6523C28.3223 46.0308 28.5306 46.3783 28.864 46.5566C29.1932 46.7332 29.5989 46.7172 29.9165 46.5055L35.8104 42.5762H40.627C46.2806 42.5762 50.9492 37.9759 50.9492 32.3223C50.9492 26.6686 46.2806 22 40.627 22ZM28.3223 34.373C27.1917 34.373 26.2715 33.4528 26.2715 32.3223C26.2715 31.1917 27.1917 30.2715 28.3223 30.2715C29.4528 30.2715 30.373 31.1917 30.373 32.3223C30.373 33.4528 29.4528 34.373 28.3223 34.373ZM34.4746 34.373C33.3441 34.373 32.4238 33.4528 32.4238 32.3223C32.4238 31.1917 33.3441 30.2715 34.4746 30.2715C35.6051 30.2715 36.5254 31.1917 36.5254 32.3223C36.5254 33.4528 35.6051 34.373 34.4746 34.373ZM40.627 34.373C39.4964 34.373 38.5762 33.4528 38.5762 32.3223C38.5762 31.1917 39.4964 30.2715 40.627 30.2715C41.7575 30.2715 42.6777 31.1917 42.6777 32.3223C42.6777 33.4528 41.7575 34.373 40.627 34.373Z" fill="white"/>
<path d="M51.7314 37.7295C49.7252 41.8073 45.4705 44.6269 40.627 44.6269H36.4313L31.054 48.2118C30.0911 48.855 28.8726 48.8882 27.8947 48.364C26.8943 47.8293 26.2715 46.7899 26.2715 45.6523V44.4557C23.9612 44.0663 21.8285 43.0146 20.1552 41.5371C20.1201 41.8836 20.0508 42.2236 20.0508 42.5762C20.0508 48.2298 24.7194 52.8301 30.373 52.8301H35.1896L41.0836 56.8277C41.4011 57.0394 41.8068 57.0554 42.1361 56.8788C42.4694 56.7006 42.6777 56.3531 42.6777 55.9746V52.8301C43.0567 52.8301 43.7935 52.8781 44.1067 52.7309C49.0864 52.034 53 47.7452 53 42.5762C53 40.8454 52.5306 39.2066 51.7314 37.7295Z" fill="white"/>
</g>
<defs>
<clipPath id="clip0_92_588">
<rect width="71" height="80" fill="white"/>
</clipPath>
</defs>
</svg>
