<svg width="60" height="60" viewBox="0 0 60 60" fill="none" xmlns="http://www.w3.org/2000/svg">
<g clip-path="url(#clip0_44_3)">
<path d="M52.528 8.74917C52.452 8.74917 52.3755 8.74185 52.2995 8.72674C52.2245 8.71164 52.1503 8.68921 52.0803 8.65991C52.0098 8.63061 51.9406 8.59445 51.8775 8.55234C51.8143 8.50885 51.7534 8.46078 51.6994 8.40585C51.4815 8.1875 51.3561 7.88675 51.3561 7.57821C51.3561 7.50085 51.3643 7.42486 51.3794 7.34887C51.3945 7.2738 51.417 7.19964 51.4463 7.1296C51.4756 7.05911 51.5117 6.98998 51.5538 6.92681C51.5964 6.86227 51.6454 6.80276 51.6994 6.74874C51.7534 6.69473 51.8138 6.64575 51.8775 6.60317C51.9406 6.56106 52.0098 6.5249 52.0803 6.4956C52.1503 6.4663 52.224 6.44387 52.2995 6.42876C52.4506 6.39809 52.6062 6.39809 52.7578 6.42876C52.8324 6.44387 52.9052 6.4663 52.9766 6.4956C53.0471 6.5249 53.1148 6.56106 53.1784 6.60317C53.2425 6.64575 53.3025 6.69473 53.3565 6.74874C53.4101 6.80276 53.4595 6.86227 53.503 6.92681C53.5451 6.98998 53.5813 7.05911 53.6106 7.1296C53.6399 7.19964 53.6623 7.2738 53.6774 7.34887C53.6925 7.42486 53.6998 7.50085 53.6998 7.57821C53.6998 7.88675 53.5753 8.1875 53.3561 8.40585C53.3025 8.46078 53.2425 8.50885 53.178 8.55234C53.1148 8.59445 53.0471 8.63061 52.9766 8.65991C52.9061 8.68921 52.8324 8.71164 52.7573 8.72674C52.6813 8.74185 52.6053 8.74917 52.528 8.74917Z" fill="white"/>
<path d="M7.69678 8.74917C7.61942 8.74917 7.54297 8.74185 7.46698 8.72674C7.39191 8.71164 7.31821 8.68921 7.24771 8.65991C7.17767 8.63061 7.10947 8.59445 7.0463 8.55234C6.98175 8.50885 6.92178 8.46078 6.86823 8.40585C6.81284 8.35183 6.76477 8.29187 6.72174 8.22778C6.67963 8.16415 6.64301 8.0964 6.61371 8.02591C6.58441 7.95587 6.56244 7.88171 6.54688 7.80664C6.53177 7.73065 6.5249 7.65466 6.5249 7.5773C6.5249 7.50085 6.53177 7.42486 6.54688 7.34887C6.56244 7.2738 6.58441 7.19964 6.61371 7.1296C6.64301 7.05911 6.67963 6.99136 6.72174 6.92681C6.76477 6.86364 6.81284 6.80367 6.86823 6.74874C6.92178 6.69473 6.98175 6.64666 7.0463 6.60317C7.10947 6.56106 7.17767 6.5249 7.24771 6.4956C7.31821 6.4663 7.39191 6.44387 7.46698 6.42876C7.61804 6.39809 7.77414 6.39809 7.9252 6.42876C8.00028 6.44387 8.07398 6.4663 8.14447 6.4956C8.21451 6.5249 8.28272 6.56106 8.34681 6.60317C8.41043 6.64666 8.47132 6.69473 8.52533 6.74874C8.57889 6.80367 8.62833 6.86364 8.67044 6.92681C8.71256 6.99136 8.74918 7.05911 8.77848 7.1296C8.80777 7.19964 8.82975 7.2738 8.84485 7.34887C8.86042 7.42486 8.86866 7.50085 8.86866 7.5773C8.86866 7.65466 8.86042 7.73065 8.84485 7.80664C8.82975 7.88171 8.80777 7.95587 8.77848 8.02591C8.74918 8.0964 8.71256 8.16415 8.67044 8.22778C8.62833 8.29187 8.57889 8.35183 8.52533 8.40585C8.47132 8.46078 8.41043 8.50885 8.34681 8.55234C8.28272 8.59445 8.21451 8.63061 8.14447 8.65991C8.07398 8.68921 8.00028 8.71164 7.9252 8.72674C7.84876 8.74185 7.77277 8.74917 7.69678 8.74917Z" fill="white"/>
<path d="M59.1459 46.8512L58.0633 45.7686C57.4421 45.1469 56.6159 44.8045 55.7369 44.8045C55.1794 44.8045 54.6433 44.9423 54.1673 45.2014L49.5736 40.6073L50.9863 39.1946C52.2726 37.9078 52.2726 35.814 50.9863 34.5277L49.9174 33.4584C49.2944 32.8349 48.4654 32.4916 47.5842 32.4916C46.7025 32.4916 45.874 32.8349 45.2509 33.4584L44.2764 34.433L40.6811 30.5552L59.7213 13.2609C59.9717 13.0334 60.1118 12.7084 60.1049 12.3701L59.8848 1.36818C59.8724 0.739667 59.3657 0.232464 58.7367 0.220105L47.7371 0.000377737C47.3937 -0.00831979 47.0733 0.133587 46.8462 0.383984L30.1072 18.82L13.3786 0.384442C13.1511 0.133587 12.8238 -0.0069465 12.4873 0.000377737L1.48772 0.220105C0.858751 0.232464 0.352005 0.739667 0.339646 1.36818L0.119919 12.3701C0.113052 12.7084 0.253128 13.0334 0.503983 13.2609L19.4989 30.504L15.9393 34.4238L14.9675 33.452C14.3463 32.8303 13.5201 32.4879 12.6407 32.4879C11.7618 32.4879 10.9355 32.8303 10.3139 33.452L9.23172 34.5341C7.94907 35.8172 7.94907 37.9046 9.23172 39.1873L10.6513 40.6068L6.05758 45.2014C5.58151 44.9423 5.04547 44.8045 4.48837 44.8045C3.609 44.8045 2.78274 45.1469 2.16109 45.7686L1.07894 46.8507C-0.203721 48.1338 -0.203721 50.2212 1.07894 51.5039L8.60962 59.036C9.23127 59.6576 10.0575 60 10.9364 60C11.8158 60 12.6421 59.6576 13.2633 59.036L14.3459 57.9534C15.3987 56.9005 15.5873 55.3052 14.9112 54.0578L19.5053 49.4627L20.9239 50.8818C21.5456 51.5034 22.3719 51.8459 23.2508 51.8459C24.1301 51.8459 24.9564 51.5034 25.5776 50.8818L26.6602 49.7992C27.9424 48.5165 27.9424 46.4291 26.6602 45.1465L25.6874 44.1733L30.0554 40.2058L34.5278 44.1824L33.5715 45.1391C32.2852 46.4259 32.2852 48.5197 33.5715 49.8061L34.6404 50.8754C35.2634 51.4989 36.092 51.8422 36.9736 51.8422C37.8548 51.8422 38.6838 51.4989 39.3069 50.8754L40.7191 49.4627L45.3132 54.0578C44.6371 55.3052 44.8257 56.9005 45.879 57.9538L46.9607 59.036C47.5823 59.6576 48.4086 60 49.288 60C50.1669 60 50.9931 59.6576 51.6148 59.036L59.1455 51.5039C60.4286 50.2212 60.4286 48.1338 59.1459 46.8512ZM42.6179 36.0914L40.2398 38.47L36.3026 34.5318L38.9461 32.1309L42.6179 36.0914ZM2.47374 11.8839L2.66051 2.54097L12.0012 2.3542L28.5242 20.5632L25.5794 23.8069L11.8538 10.079C11.3965 9.62121 10.6545 9.62121 10.1967 10.079C9.73893 10.5363 9.73893 11.2783 10.1967 11.7361L24.002 25.5441L21.0746 28.7686L2.47374 11.8839ZM48.2232 2.3542L57.5643 2.54097L57.7511 11.8839L24.0285 42.5143L21.6422 40.1275L50.0282 11.7361C50.4855 11.2783 50.4855 10.5363 50.0282 10.0785C49.5704 9.62121 48.8284 9.62121 48.3706 10.079L19.9846 38.47L17.5983 36.0832L48.2232 2.3542ZM12.6883 56.2962L11.6061 57.3789C11.4272 57.5578 11.1896 57.6563 10.9364 57.6563C10.6838 57.6563 10.4457 57.5578 10.2672 57.3789L2.7365 49.8468C2.36754 49.4778 2.36754 48.8773 2.7365 48.5078L3.81866 47.4257C3.99764 47.2467 4.23522 47.1483 4.48837 47.1483C4.74105 47.1483 4.97863 47.2467 5.15762 47.4257L5.32333 47.5909C5.32333 47.5914 5.32379 47.5919 5.32424 47.5919L12.5212 54.7907C12.5217 54.7911 12.5221 54.7911 12.5226 54.7916L12.6883 54.9577C13.0573 55.3267 13.0573 55.9273 12.6883 56.2962ZM13.3498 52.3045L7.80991 46.7638L12.3084 42.2644L17.8482 47.8056L13.3498 52.3045ZM25.0026 48.1421L23.9205 49.2247C23.7415 49.4032 23.5039 49.5021 23.2508 49.5021C22.9981 49.5021 22.76 49.4037 22.5815 49.2247L10.8888 37.5302C10.5199 37.1612 10.5199 36.5606 10.8888 36.1917L11.9714 35.1091C12.15 34.9305 12.388 34.8317 12.6407 34.8317C12.8934 34.8317 13.1314 34.9301 13.3104 35.1091L25.0026 46.8036C25.3716 47.1725 25.3716 47.7731 25.0026 48.1421ZM31.8004 38.621L34.5653 36.1093L38.5827 40.1275L36.1881 42.5226L31.8004 38.621ZM37.6498 49.2183C37.4689 49.3991 37.2291 49.4984 36.9736 49.4984C36.7187 49.4984 36.4783 49.3991 36.298 49.2183L35.2291 48.1494C34.856 47.7763 34.856 47.1693 35.2291 46.7967L46.908 35.1155C47.0884 34.9347 47.3287 34.8353 47.5837 34.8353C47.8391 34.8353 48.0795 34.9347 48.2598 35.1155L49.3287 36.1844C49.7018 36.5574 49.7018 37.164 49.3287 37.5371L37.6498 49.2183ZM47.9165 42.2644L52.415 46.7638L46.8746 52.3045L42.3766 47.8056L47.9165 42.2644ZM57.4884 49.8468L49.9577 57.3789C49.7787 57.5578 49.5411 57.6563 49.288 57.6563C49.0353 57.6563 48.7977 57.5578 48.6187 57.3789L47.5366 56.2967C47.1676 55.9273 47.1676 55.3272 47.5361 54.9577L47.7023 54.792C47.7023 54.7916 47.7027 54.7911 47.7032 54.7907L55.0668 47.4257C55.2458 47.2472 55.4838 47.1483 55.7365 47.1483C55.9892 47.1483 56.2272 47.2467 56.4062 47.4257L57.4879 48.5083C57.8573 48.8773 57.8573 49.4778 57.4884 49.8468Z" fill="white"/>
</g>
<defs>
<clipPath id="clip0_44_3">
<rect width="60" height="60" fill="white"/>
</clipPath>
</defs>
</svg>
