<svg width="60" height="54" viewBox="0 0 60 54" fill="none" xmlns="http://www.w3.org/2000/svg">
<path d="M59.6478 44.1095L51.8723 36.4995C51.6533 36.2852 51.359 36.165 51.0526 36.165H1.17182C0.687838 36.165 0.253659 36.4626 0.0789322 36.914C-0.0957944 37.3654 0.0250259 37.8777 0.382917 38.2035L7.78237 44.9404L0.389596 51.5671C-0.408216 52.2636 0.113385 53.6256 1.17182 53.6116L51.0526 53.6117C51.3559 53.6117 51.6473 53.4942 51.8657 53.2837L59.6413 45.7909C59.8693 45.5712 59.9987 45.2684 60 44.9516C60.0011 44.6349 59.8742 44.3311 59.6478 44.1095ZM34.8846 38.5089L41.456 44.9405L34.8898 51.2679H21.1709L26.8551 45.7911C27.0833 45.5713 27.2126 45.2685 27.2139 44.9518C27.2151 44.635 27.0881 44.3313 26.8617 44.1097L21.1388 38.5089H34.8846ZM10.3127 45.8198C10.5595 45.5985 10.701 45.2832 10.7023 44.9516C10.7036 44.6202 10.5645 44.3037 10.3194 44.0806L4.1996 38.509H17.7878L24.3595 44.9406L17.7931 51.2681L4.23475 51.2679L10.3127 45.8198ZM50.5798 51.2679H38.2675L43.9512 45.7908C44.1793 45.5711 44.3087 45.2683 44.31 44.9515C44.3111 44.6348 44.1841 44.3311 43.9578 44.1095L38.2354 38.5089H50.5746L57.1461 44.9405L50.5798 51.2679Z" fill="white"/>
<path d="M24.6956 29.6922C24.8309 29.743 24.9698 29.767 25.1063 29.767C25.5809 29.767 26.0277 29.4765 26.204 29.0056C26.431 28.3995 26.1235 27.7242 25.5174 27.4972C12.3029 22.2826 15.7746 3.00206 30.0001 2.7323C43.9617 2.88276 47.7058 21.9926 34.8158 27.3653C34.2165 27.6093 33.9283 28.293 34.1723 28.8924C34.4163 29.4919 35.1002 29.78 35.6995 29.5361C50.9511 23.1781 46.5192 0.564092 29.9997 0.388428C13.1643 0.709756 9.06149 23.5237 24.6956 29.6922Z" fill="white"/>
<path d="M37.0393 11.1113C36.5817 10.6537 35.8397 10.6537 35.382 11.1113L27.8498 18.6435L24.7499 15.5435C23.6147 14.4844 22.0338 16.0668 23.0926 17.2009L27.0212 21.1294C27.4788 21.587 28.2209 21.587 28.6785 21.1294L37.0393 12.7685C37.4968 12.311 37.4968 11.569 37.0393 11.1113Z" fill="white"/>
<path d="M31.1648 28.8271C30.5559 27.9078 29.1011 28.2926 29.0225 29.3915C28.9445 30.4761 30.3189 31.0686 31.055 30.2689C31.4152 29.8773 31.4592 29.2688 31.1648 28.8271Z" fill="white"/>
</svg>
