<svg width="40" height="12" viewBox="0 0 40 12" fill="none" xmlns="http://www.w3.org/2000/svg">
<path d="M39.5943 7.39266C40.1352 7.12219 40.1352 6.24318 39.5943 5.97272C35.4021 3.67377 31.1423 1.57767 26.5444 0.360581C25.8682 0.225349 25.1921 0.969126 25.5978 1.57767C26.5444 2.92999 27.6939 4.07947 29.0462 5.09371C19.5799 4.82324 9.77561 3.53854 0.444587 5.76987C-0.231575 5.9051 -0.0963443 7.05446 0.579925 6.98685C10.249 5.76987 19.8505 6.71649 29.5196 6.85162C28.5054 8.00109 27.4911 9.15056 26.4769 10.2324C26.0036 10.7057 26.274 11.7201 27.0854 11.6525C31.548 11.1114 35.7402 9.62388 39.5943 7.39266ZM31.548 6.64888C32.1565 6.24318 32.0213 5.09371 31.0747 5.09371C31.0071 5.09371 30.9394 5.09371 30.9394 5.09371C30.128 4.28231 29.3167 3.53854 28.5053 2.65953C31.6156 3.74139 34.5231 5.09371 37.4306 6.64877C34.7936 8.00109 32.0889 9.01533 29.1814 9.55626C29.8576 8.81248 30.5337 8.00109 31.2775 7.2572C31.548 7.12219 31.6156 6.85162 31.548 6.64888Z" fill="#666666"/>
</svg>
