<svg width="60" height="52" viewBox="0 0 60 52" fill="none" xmlns="http://www.w3.org/2000/svg">
<path d="M58.7988 14.4277C58.0242 13.6531 56.9941 13.2266 55.8984 13.2266H44.023C43.482 5.96328 37.3993 0.21875 30 0.21875C22.6007 0.21875 16.518 5.96328 15.977 13.2266H4.10156C3.00586 13.2266 1.97578 13.6531 1.20117 14.4277C0.426562 15.2022 0 16.2323 0 17.3281V47.6797C0 48.7754 0.426562 49.8055 1.20117 50.5801C1.97578 51.3546 3.00586 51.7812 4.10156 51.7812H55.8984C56.9941 51.7812 58.0242 51.3546 58.7988 50.5801C59.5734 49.8055 60 48.7754 60 47.6797V33.1811C60 32.5354 59.4738 32.0093 58.8281 32.0093C58.1824 32.0093 57.6562 32.5354 57.6562 33.1811V47.6797C57.6539 48.6477 56.8664 49.435 55.8984 49.4375H4.10156C3.13477 49.435 2.34609 48.6477 2.34375 47.6797V17.3281C2.34609 16.3602 3.13477 15.5727 4.10156 15.5703H15.9971C16.6502 22.7224 22.6805 28.3438 30 28.3438C37.3195 28.3438 43.3496 22.7224 44.0028 15.5703H55.8984C56.8664 15.5727 57.6539 16.3602 57.6562 17.3281V22.6343C57.6562 23.2812 58.1824 23.8061 58.8281 23.8061C59.4738 23.8061 60 23.2812 60 22.6343V17.3281C60 16.2323 59.5734 15.2022 58.7988 14.4277ZM30 26C23.5383 26 18.2812 20.7431 18.2812 14.2812C18.2812 7.81941 23.5383 2.5625 30 2.5625C36.4617 2.5625 41.7188 7.81941 41.7188 14.2812C41.7188 20.7431 36.4617 26 30 26Z" fill="white"/>
<path d="M58.8281 29.0796C59.4753 29.0796 60 28.5549 60 27.9077C60 27.2605 59.4753 26.7358 58.8281 26.7358C58.1809 26.7358 57.6562 27.2605 57.6562 27.9077C57.6562 28.5549 58.1809 29.0796 58.8281 29.0796Z" fill="white"/>
<path d="M14.0625 25.1797C14.0625 24.5326 13.5379 24.0078 12.8906 24.0078H5.85938C5.21215 24.0078 4.6875 24.5326 4.6875 25.1797V29.8672C4.6875 30.5143 5.21215 31.0391 5.85938 31.0391H12.8906C13.5379 31.0391 14.0625 30.5143 14.0625 29.8672V25.1797ZM11.7188 28.6953H7.03125V26.3516H11.7188V28.6953Z" fill="white"/>
<path d="M12.8906 33.3828H5.85938C5.21215 33.3828 4.6875 33.9076 4.6875 34.5547C4.6875 35.2018 5.21215 35.7266 5.85938 35.7266H12.8906C13.5379 35.7266 14.0625 35.2018 14.0625 34.5547C14.0625 33.9076 13.5379 33.3828 12.8906 33.3828Z" fill="white"/>
<path d="M19.6875 33.3828C19.0403 33.3828 18.5156 33.9076 18.5156 34.5547C18.5156 35.2018 19.0403 35.7266 19.6875 35.7266H26.7188C27.366 35.7266 27.8906 35.2018 27.8906 34.5547C27.8906 33.9076 27.366 33.3828 26.7188 33.3828H19.6875Z" fill="white"/>
<path d="M54.1406 33.3828H47.1094C46.4621 33.3828 45.9375 33.9076 45.9375 34.5547C45.9375 35.2018 46.4621 35.7266 47.1094 35.7266H54.1406C54.7879 35.7266 55.3125 35.2018 55.3125 34.5547C55.3125 33.9076 54.7879 33.3828 54.1406 33.3828Z" fill="white"/>
<path d="M41.6016 34.5547C41.6016 33.9076 41.0769 33.3828 40.4297 33.3828H33.3984C32.7512 33.3828 32.2266 33.9076 32.2266 34.5547C32.2266 35.2018 32.7512 35.7266 33.3984 35.7266H40.4297C41.0769 35.7266 41.6016 35.2018 41.6016 34.5547Z" fill="white"/>
<path d="M45.9139 38.3014C45.3296 38.023 44.6304 38.2713 44.3521 38.8556L42.0083 43.7775C41.7301 44.3619 41.9782 45.0612 42.5625 45.3394C42.7251 45.4168 42.8966 45.4535 43.0655 45.4535C43.5034 45.4535 43.9235 45.2069 44.1244 44.7853L46.4681 39.8634C46.7464 39.2788 46.4984 38.5796 45.9139 38.3014Z" fill="white"/>
<path d="M34.2773 40.6484C33.6301 40.6484 33.1055 41.1732 33.1055 41.8203C33.1055 42.4674 33.6301 42.9922 34.2773 42.9922H38.9648C39.6121 42.9922 40.1367 42.4674 40.1367 41.8203C40.1367 41.1732 39.6121 40.6484 38.9648 40.6484H34.2773Z" fill="white"/>
<path d="M54.1406 40.6484H49.4531C48.8059 40.6484 48.2812 41.1732 48.2812 41.8203C48.2812 42.4674 48.8059 42.9922 49.4531 42.9922H54.1406C54.7879 42.9922 55.3125 42.4674 55.3125 41.8203C55.3125 41.1732 54.7879 40.6484 54.1406 40.6484Z" fill="white"/>
<path d="M34.7335 8.23777C34.5138 8.01805 34.2157 7.89453 33.9049 7.89453C33.5941 7.89453 33.296 8.01805 33.0763 8.23777L28.9156 12.3985L26.9063 10.4722C26.4462 10.0309 25.7176 10.0387 25.2667 10.4894L21.9519 13.8042C21.7308 14.0254 21.6072 14.3257 21.6087 14.6384C21.6102 14.9512 21.7366 15.2504 21.9599 15.4694L28.1122 21.5046C28.3403 21.7283 28.6365 21.8398 28.9328 21.8398C29.2328 21.8398 29.5328 21.7252 29.7615 21.4966L38.0483 13.2098C38.5059 12.7522 38.5059 12.0102 38.0483 11.5524L34.7335 8.23777ZM28.9248 19.0187L24.4456 14.6248L26.1124 12.9581L28.1217 14.8844C28.5818 15.3257 29.3105 15.3179 29.7614 14.8672L33.9048 10.7238L35.5623 12.3813L28.9248 19.0187Z" fill="white"/>
</svg>
