<svg width="60" height="60" viewBox="0 0 60 60" fill="none" xmlns="http://www.w3.org/2000/svg">
<path d="M58.8281 0H1.17196C0.524688 0 9.15527e-05 0.524596 9.15527e-05 1.17187V49.453C9.15527e-05 50.1003 0.524688 50.6249 1.17196 50.6249H11.5627C12.21 50.6249 12.7346 50.1003 12.7346 49.453C12.7346 48.8058 12.21 48.2812 11.5627 48.2812H2.34384V11.7187H57.6562V48.2812H54.4922C54.4464 48.2812 54.4015 48.2844 54.3567 48.2894L48.1856 42.1183L50.9885 39.3154C51.2819 39.022 51.3982 38.5958 51.2947 38.1944C51.1912 37.7924 50.8827 37.4757 50.484 37.3608L47.9594 36.6338C50.0304 35.1278 51.3281 32.6948 51.3281 29.9999C51.3281 25.4768 47.6482 21.7968 43.125 21.7968H16.8751C12.3519 21.7968 8.67195 25.4768 8.67195 29.9999C8.67195 34.5231 12.3519 38.203 16.8751 38.203H29.296L32.1982 48.2812H22.1096C21.4623 48.2812 20.9377 48.8058 20.9377 49.453C20.9377 50.1003 21.4623 50.6249 22.1096 50.6249H32.8734L33.8452 54C33.9601 54.3982 34.2769 54.7068 34.6788 54.8102C35.0803 54.9141 35.5069 54.7974 35.7999 54.5044L38.6028 51.7011L46.5582 59.6566C46.778 59.8763 47.076 59.9999 47.3868 59.9999C47.6976 59.9999 47.9961 59.8763 48.2158 59.6566L56.141 51.7313C56.4409 51.4315 56.5429 51.009 56.4496 50.6249H58.8281C59.4754 50.6249 60 50.1003 60 49.453V1.17187C60 0.524596 59.4754 0 58.8281 0V0ZM16.8751 35.8593C13.6442 35.8593 11.0157 33.2308 11.0157 29.9999C11.0157 26.7691 13.6442 24.1406 16.8751 24.1406H43.125C46.3559 24.1406 48.9844 26.7691 48.9844 29.9999C48.9844 32.6792 47.1895 34.9964 44.6091 35.6689L29.1523 31.2176C28.7426 31.0995 28.3008 31.2135 27.9996 31.5151C27.6979 31.8168 27.584 32.2581 27.7021 32.6682L28.6212 35.8593H16.8751ZM47.3872 57.1704L39.4318 49.215C39.212 48.9953 38.914 48.8717 38.6032 48.8717C38.2924 48.8717 37.9939 48.9953 37.7742 49.215L35.5477 51.442L30.5411 34.0562L47.9265 39.0632L45.6999 41.2897C45.2422 41.7475 45.2422 42.4895 45.6999 42.9473L53.6554 50.9028L47.3872 57.1704ZM2.34384 9.37498V2.34375H57.6562V9.37498H2.34384Z" fill="white"/>
<path d="M16.9336 4.6875C16.6255 4.6875 16.323 4.81293 16.1051 5.03082C15.8872 5.24872 15.7617 5.5513 15.7617 5.85938C15.7617 6.16745 15.8872 6.47003 16.1051 6.68793C16.323 6.90582 16.6255 7.03125 16.9336 7.03125C17.2417 7.03125 17.5443 6.90582 17.7622 6.68793C17.9801 6.47003 18.1055 6.16745 18.1055 5.85938C18.1055 5.5513 17.9801 5.24872 17.7622 5.03082C17.5443 4.81293 17.2417 4.6875 16.9336 4.6875Z" fill="white"/>
<path d="M12.2461 4.6875C11.938 4.6875 11.6355 4.81293 11.4176 5.03082C11.1997 5.24872 11.0742 5.5513 11.0742 5.85938C11.0742 6.16745 11.1997 6.47003 11.4176 6.68793C11.6355 6.90582 11.938 7.03125 12.2461 7.03125C12.5542 7.03125 12.8568 6.90582 13.0747 6.68793C13.2926 6.47003 13.418 6.16745 13.418 5.85938C13.418 5.5513 13.2926 5.24872 13.0747 5.03082C12.8568 4.81293 12.5542 4.6875 12.2461 4.6875Z" fill="white"/>
<path d="M7.55865 4.6875C7.25058 4.6875 6.948 4.81293 6.7301 5.03082C6.51221 5.24872 6.38678 5.5513 6.38678 5.85938C6.38678 6.16745 6.51221 6.47003 6.7301 6.68793C6.948 6.90582 7.25058 7.03125 7.55865 7.03125C7.86673 7.03125 8.16931 6.90582 8.38721 6.68793C8.6051 6.47003 8.73053 6.16745 8.73053 5.85938C8.73053 5.5513 8.6051 5.24872 8.38721 5.03082C8.16931 4.81293 7.86673 4.6875 7.55865 4.6875Z" fill="white"/>
<path d="M52.5 4.6875H23.4375C22.7902 4.6875 22.2656 5.2121 22.2656 5.85938C22.2656 6.50665 22.7902 7.03125 23.4375 7.03125H52.5C53.1473 7.03125 53.6719 6.50665 53.6719 5.85938C53.6719 5.2121 53.1473 4.6875 52.5 4.6875Z" fill="white"/>
<path d="M16.8366 48.2812C16.5271 48.2812 16.2259 48.4067 16.0067 48.6246C15.7888 48.8425 15.6647 49.1437 15.6647 49.4531C15.6647 49.7612 15.7888 50.0638 16.0067 50.2817C16.2259 50.4996 16.5271 50.625 16.8366 50.625C17.1447 50.625 17.4468 50.4996 17.6651 50.2817C17.883 50.0638 18.0085 49.7612 18.0085 49.4531C18.0085 49.1451 17.883 48.8425 17.6651 48.6246C17.4459 48.4067 17.1447 48.2812 16.8366 48.2812Z" fill="white"/>
</svg>
