<svg width="53" height="60" viewBox="0 0 53 60" fill="none" xmlns="http://www.w3.org/2000/svg">
<g clip-path="url(#clip0_109_4692)">
<path d="M5.95593e-08 18.6936V41.3065C-0.000170048 42.6954 0.364047 44.0598 1.05606 45.2627C1.74806 46.4657 2.74349 47.4647 3.94231 48.1595L22.5577 58.9397C23.7569 59.6342 25.1172 59.9999 26.502 59.9999C27.8867 59.9999 29.247 59.6342 30.4462 58.9397L49.0577 48.1595C50.2565 47.4647 51.2519 46.4657 51.9439 45.2627C52.636 44.0598 53.0002 42.6954 53 41.3065V18.6936C53.0002 17.3047 52.636 15.9403 51.9439 14.7374C51.2519 13.5344 50.2565 12.5354 49.0577 11.8406L30.4462 1.06039C29.247 0.365854 27.8867 0.000207901 26.502 0.000207901C25.1172 0.000207901 23.7569 0.365854 22.5577 1.06039L3.94231 11.8406C2.74349 12.5354 1.74806 13.5344 1.05606 14.7374C0.364047 15.9403 -0.000170048 17.3047 5.95593e-08 18.6936Z" fill="#8624AA"/>
<path opacity="0.1" d="M36.3734 15.0491C35.1742 14.3545 33.8138 13.9889 32.4291 13.9889C31.0444 13.9889 29.6841 14.3545 28.4848 15.0491L9.87338 25.8293C8.67356 26.5233 7.67714 27.522 6.98438 28.7251C6.29163 29.9281 5.92698 31.293 5.92715 32.6823V49.3101L22.5577 58.9397C23.7569 59.6342 25.1172 59.9998 26.5019 59.9998C27.8867 59.9998 29.247 59.6342 30.4462 58.9397L49.0577 48.1594C50.2565 47.4647 51.2519 46.4656 51.9439 45.2627C52.6359 44.0598 53.0002 42.6953 53 41.3065V24.6786L36.3734 15.0491Z" fill="white"/>
<path opacity="0.1" d="M39.7206 48.454L21.1053 37.6738C19.9061 36.9792 18.5457 36.6136 17.161 36.6136C15.7763 36.6136 14.4159 36.9792 13.2167 37.6738L0.82605 44.8488C1.51561 46.2346 2.59672 47.3861 3.93449 48.1594L22.5459 58.9397C23.7452 59.6342 25.1055 59.9998 26.4902 59.9998C27.8749 59.9998 29.2353 59.6342 30.4345 58.9397L42.8252 51.7607C42.1358 50.377 41.0562 49.2271 39.7206 48.454Z" fill="white"/>
<path d="M44.767 33.9586C44.7396 33.6641 44.7043 33.3696 44.6652 33.075H32.4546L31.5737 36.6095H41.083C40.7514 37.8616 40.1043 39.0071 39.2039 39.9359C38.5359 40.6148 37.7366 41.1494 36.8549 41.5067C35.9842 41.8594 35.0535 42.0394 34.1145 42.0369C33.1752 42.0424 32.244 41.8623 31.3741 41.5067C30.504 41.1449 29.7158 40.6106 29.0564 39.9359C28.3848 39.2616 27.8526 38.4608 27.4905 37.5795C27.1299 36.7082 26.945 35.7739 26.9463 34.8305C26.9417 33.8868 27.1268 32.9518 27.4905 32.0814C28.2381 30.3274 29.6302 28.9295 31.378 28.1778C32.246 27.8147 33.178 27.6304 34.1184 27.6358C35.0647 27.6294 36.0027 27.8135 36.8768 28.1771C37.751 28.5407 38.5436 29.0764 39.2078 29.7526L41.6742 27.2509C40.1765 25.7406 38.263 24.7138 36.1793 24.3023C34.0957 23.8908 31.937 24.1135 29.9804 24.9417C29.8355 25.0007 29.6985 25.0753 29.5576 25.146C29.5646 23.7155 29.2795 22.2988 28.7198 20.9831C27.6352 18.4098 25.5911 16.3635 23.0236 15.2808C21.0686 14.4417 18.9069 14.2136 16.8207 14.6263C14.7345 15.039 12.8208 16.0732 11.3298 17.5939L13.7961 20.0956C14.4666 19.4197 15.2653 18.8855 16.1451 18.5247C17.0131 18.1611 17.9449 17.9754 18.8855 17.9788C19.8265 17.9722 20.7589 18.1579 21.626 18.5247C23.3723 19.2765 24.764 20.6726 25.5135 22.4244C25.879 23.2942 26.0642 24.2295 26.0576 25.1734C26.061 26.117 25.8759 27.0518 25.5135 27.9225C25.1537 28.8051 24.6213 29.6063 23.9475 30.2788C23.288 30.9533 22.4997 31.4875 21.6299 31.8497C20.7593 32.2026 19.8284 32.3814 18.8894 32.376C17.9508 32.3786 17.0203 32.1999 16.149 31.8497C15.2672 31.4926 14.4678 30.958 13.8001 30.2788C12.8989 29.3506 12.2517 28.2049 11.9209 26.9525H21.4263L20.5454 23.418H8.33485C8.2957 23.7125 8.26438 24.0071 8.23306 24.3016C8.20174 24.5962 8.19 24.8907 8.19 25.1852C8.18097 26.6171 8.46616 28.0356 9.02779 29.352C10.1114 31.9201 12.1548 33.9601 14.7201 35.0347C16.0344 35.5893 17.4459 35.875 18.8718 35.875C20.2977 35.875 21.7092 35.5893 23.0236 35.0347C23.1684 34.9758 23.3055 34.9012 23.4464 34.8305C23.4339 36.2641 23.7151 37.685 24.2724 39.0051C25.3545 41.5829 27.3989 43.6338 29.9686 44.7192C31.283 45.2738 32.6945 45.5595 34.1204 45.5595C35.5463 45.5595 36.9578 45.2738 38.2721 44.7192C40.8419 43.6338 42.8863 41.5829 43.9683 39.0051C44.5268 37.6892 44.8106 36.2724 44.8022 34.8423C44.8061 34.5473 44.7943 34.2523 44.767 33.9586Z" fill="white"/>
</g>
<defs>
<clipPath id="clip0_109_4692">
<rect width="53" height="60" fill="white"/>
</clipPath>
</defs>
</svg>
