<svg width="53" height="60" viewBox="0 0 53 60" fill="none" xmlns="http://www.w3.org/2000/svg">
<g clip-path="url(#clip0_92_529)">
<path d="M5.95593e-08 18.6934V41.3063C-0.000170048 42.6952 0.364047 44.0596 1.05606 45.2625C1.74806 46.4655 2.74349 47.4645 3.94231 48.1593L22.5577 58.9395C23.7569 59.634 25.1172 59.9997 26.502 59.9997C27.8867 59.9997 29.247 59.634 30.4462 58.9395L49.0577 48.1593C50.2565 47.4645 51.2519 46.4655 51.9439 45.2625C52.636 44.0596 53.0002 42.6952 53 41.3063V18.6934C53.0002 17.3045 52.636 15.9401 51.9439 14.7371C51.2519 13.5342 50.2565 12.5352 49.0577 11.8404L30.4462 1.06019C29.247 0.365646 27.8867 0 26.502 0C25.1172 0 23.7569 0.365646 22.5577 1.06019L3.94231 11.8404C2.74349 12.5352 1.74806 13.5342 1.05606 14.7371C0.364047 15.9401 -0.000170048 17.3045 5.95593e-08 18.6934Z" fill="#8624AA"/>
<path opacity="0.1" d="M36.3734 15.049C35.1742 14.3544 33.8138 13.9888 32.4291 13.9888C31.0444 13.9888 29.6841 14.3544 28.4848 15.049L9.87338 25.8292C8.67356 26.5231 7.67714 27.5219 6.98438 28.7249C6.29163 29.928 5.92698 31.2928 5.92715 32.6822V49.31L22.5577 58.9395C23.7569 59.6341 25.1172 59.9997 26.5019 59.9997C27.8867 59.9997 29.247 59.6341 30.4462 58.9395L49.0577 48.1593C50.2565 47.4645 51.2519 46.4655 51.9439 45.2626C52.6359 44.0596 53.0002 42.6952 53 41.3063V24.6785L36.3734 15.049Z" fill="white"/>
<path opacity="0.1" d="M39.7206 48.4537L21.1053 37.6735C19.9061 36.9789 18.5457 36.6133 17.161 36.6133C15.7763 36.6133 14.4159 36.9789 13.2167 37.6735L0.82605 44.8485C1.51561 46.2343 2.59672 47.3858 3.93449 48.1591L22.5459 58.9393C23.7452 59.6339 25.1055 59.9995 26.4902 59.9995C27.8749 59.9995 29.2353 59.6339 30.4345 58.9393L42.8252 51.7604C42.1358 50.3767 41.0562 49.2268 39.7206 48.4537Z" fill="white"/>
<path d="M44.767 33.9585C44.7396 33.6639 44.7043 33.3694 44.6652 33.0748H32.4546L31.5737 36.6093H41.083C40.7514 37.8614 40.1043 39.0069 39.2039 39.9357C38.5359 40.6146 37.7366 41.1492 36.8549 41.5066C35.9842 41.8592 35.0535 42.0392 34.1145 42.0367C33.1752 42.0422 32.244 41.8621 31.3741 41.5066C30.504 41.1447 29.7158 40.6104 29.0564 39.9357C28.3848 39.2614 27.8526 38.4606 27.4905 37.5793C27.1299 36.708 26.945 35.7737 26.9463 34.8303C26.9417 33.8866 27.1268 32.9516 27.4905 32.0812C28.2381 30.3272 29.6302 28.9293 31.378 28.1776C32.246 27.8145 33.178 27.6302 34.1184 27.6356C35.0647 27.6293 36.0027 27.8133 36.8768 28.1769C37.751 28.5405 38.5436 29.0762 39.2078 29.7524L41.6742 27.2508C40.1765 25.7404 38.263 24.7136 36.1793 24.3021C34.0957 23.8906 31.937 24.1133 29.9804 24.9416C29.8355 25.0005 29.6985 25.0751 29.5576 25.1458C29.5646 23.7153 29.2795 22.2986 28.7198 20.9829C27.6352 18.4096 25.5911 16.3633 23.0236 15.2806C21.0686 14.4415 18.9069 14.2134 16.8207 14.6261C14.7345 15.0388 12.8208 16.073 11.3298 17.5937L13.7961 20.0954C14.4666 19.4195 15.2653 18.8853 16.1451 18.5245C17.0131 18.1609 17.9449 17.9753 18.8855 17.9786C19.8265 17.972 20.7589 18.1578 21.626 18.5245C23.3723 19.2763 24.764 20.6724 25.5135 22.4242C25.879 23.294 26.0642 24.2294 26.0576 25.1733C26.061 26.1169 25.8759 27.0516 25.5135 27.9223C25.1537 28.8049 24.6213 29.6061 23.9475 30.2787C23.288 30.9531 22.4997 31.4874 21.6299 31.8495C20.7593 32.2024 19.8284 32.3812 18.8894 32.3758C17.9508 32.3784 17.0203 32.1998 16.149 31.8495C15.2672 31.4925 14.4678 30.9578 13.8001 30.2787C12.8989 29.3504 12.2517 28.2048 11.9209 26.9523H21.4263L20.5454 23.4178H8.33485C8.2957 23.7123 8.26438 24.0069 8.23306 24.3014C8.20174 24.596 8.19 24.8905 8.19 25.1851C8.18097 26.617 8.46616 28.0354 9.02779 29.3518C10.1114 31.9199 12.1548 33.9599 14.7201 35.0345C16.0344 35.5891 17.4459 35.8748 18.8718 35.8748C20.2977 35.8748 21.7092 35.5891 23.0236 35.0345C23.1684 34.9756 23.3055 34.901 23.4464 34.8303C23.4339 36.2639 23.7151 37.6848 24.2724 39.0049C25.3545 41.5827 27.3989 43.6336 29.9686 44.719C31.283 45.2737 32.6945 45.5594 34.1204 45.5594C35.5463 45.5594 36.9578 45.2737 38.2721 44.719C40.8419 43.6336 42.8863 41.5827 43.9683 39.0049C44.5268 37.689 44.8106 36.2723 44.8022 34.8421C44.8061 34.5471 44.7943 34.2522 44.767 33.9585Z" fill="white"/>
</g>
<defs>
<clipPath id="clip0_92_529">
<rect width="53" height="60" fill="white"/>
</clipPath>
</defs>
</svg>
