<svg width="50" height="50" viewBox="0 0 50 50" fill="none" xmlns="http://www.w3.org/2000/svg">
<path d="M45.0506 10.0625C44.7279 9.63025 44.1158 9.54158 43.6839 9.86443C43.2517 10.1872 43.1631 10.799 43.4859 11.2311C49.6574 19.4948 49.446 30.9162 43.3278 38.9682L43.321 38.9195C43.0298 36.8397 41.5384 35.117 39.5218 34.531L33.3245 32.7297C31.8156 32.291 30.7617 30.8872 30.7617 29.3158V28.7008C32.437 27.1435 33.4867 24.9237 33.4867 22.4631V19.2203C33.7183 19.2505 33.9505 19.2783 34.184 19.3006C34.4587 19.3277 34.7304 19.2364 34.9341 19.0512C35.1378 18.8661 35.2538 18.6037 35.2538 18.3285L35.2533 13.3022C35.2529 8.87498 31.6507 5.27313 27.2235 5.27313H22.1191C17.6588 5.27313 14.03 8.90193 14.03 13.3623V18.5218C14.03 19.0611 14.4673 19.4984 15.0065 19.4984H16.4152V22.463C16.4152 24.9712 17.5059 27.2296 19.2382 28.7908V29.3157C19.2382 30.8871 18.1843 32.2909 16.6754 32.7295L10.4823 34.5296C8.46239 35.1167 6.97079 36.8424 6.68202 38.9258L6.6745 38.9798C3.61249 34.9831 1.95312 30.1193 1.95312 24.9997C1.95312 18.8437 4.35038 13.0561 8.7034 8.7032C16.6961 0.710539 29.1663 -0.337018 38.3552 6.21229C38.7945 6.52527 39.4041 6.42293 39.7172 5.98377C40.0302 5.54461 39.928 4.93485 39.4887 4.62176C34.7309 1.23065 28.8859 -0.3836 23.0291 0.0771417C17.1068 0.542668 11.5287 3.11571 7.32225 7.32205C2.60048 12.044 0 18.322 0 24.9997C0 31.3302 2.33847 37.3005 6.60438 41.9273C6.61796 41.943 6.63202 41.9579 6.64657 41.9727C6.86727 42.2108 7.09149 42.4465 7.32235 42.6773C12.0443 47.3992 18.3223 49.9996 25.0001 49.9996C31.6778 49.9996 37.9558 47.3991 42.6777 42.6773C46.9524 38.4026 49.5323 32.7304 49.9422 26.7058C50.3478 20.7398 48.6105 14.829 45.0506 10.0625ZM15.9832 17.5455V13.3624H15.9831C15.9831 9.97898 18.7357 7.22635 22.1191 7.22635H27.2236C30.574 7.22635 33.3 9.95212 33.3003 13.3025L33.3007 17.2225C31.3027 16.9126 29.3844 16.2772 27.5852 15.3282L26.2302 14.6135C25.9091 14.4439 25.5203 14.4669 25.2212 14.6726L24.6864 15.0406C22.3044 16.6793 19.5171 17.5455 16.6259 17.5455H15.9832ZM18.3683 22.4631V19.4048C21.0278 19.1193 23.5664 18.1816 25.7932 16.6496L25.8414 16.6165L26.6738 17.0555C28.2209 17.8716 29.8478 18.4767 31.5335 18.8675V22.4631C31.5335 26.0863 28.5806 29.0338 24.9509 29.0338C21.3212 29.0338 18.3683 26.0863 18.3683 22.4631ZM41.2965 41.2963C40.0161 42.5767 38.6108 43.6864 37.1093 44.6172V41.2871C37.1093 40.7479 36.672 40.3106 36.1327 40.3106C35.5935 40.3106 35.1562 40.7479 35.1562 41.2871V45.6995C32.035 47.2343 28.5801 48.0466 25 48.0466C21.4198 48.0466 17.9649 47.2343 14.8437 45.6995V41.2871C14.8437 40.7479 14.4064 40.3106 13.8672 40.3106C13.3279 40.3106 12.8906 40.7479 12.8906 41.2871V44.6172C11.3891 43.6864 9.98377 42.5768 8.7034 41.2963C8.59149 41.1844 8.48162 41.0708 8.37225 40.957L8.61658 39.1941C8.79979 37.8724 9.74607 36.7776 11.0274 36.4052L17.2205 34.6051C17.4659 34.5338 17.703 34.445 17.9318 34.3422C18.7247 35.3215 19.7163 36.1297 20.8396 36.7058C20.9822 36.7789 21.1344 36.8136 21.2844 36.8136C21.6391 36.8136 21.9812 36.6197 22.1542 36.2824C22.4002 35.8026 22.2107 35.214 21.7307 34.9679C20.8952 34.5395 20.1528 33.9467 19.5477 33.2313C20.3931 32.3934 20.9629 31.2908 21.1354 30.0865C22.2843 30.6622 23.5803 30.987 24.951 30.987C26.3581 30.987 27.6866 30.645 28.8579 30.0404C29.0188 31.237 29.5722 32.3354 30.3988 33.1773C29.7606 33.9477 28.9665 34.5776 28.0656 35.0206C27.5816 35.2587 27.3822 35.844 27.6202 36.3279C27.79 36.6734 28.1367 36.8737 28.4972 36.8737C28.6418 36.8737 28.7888 36.8415 28.9274 36.7734C30.1207 36.1864 31.1677 35.3438 31.9965 34.3096C32.2472 34.4267 32.5083 34.5264 32.7794 34.6052L38.9767 36.4065C40.2561 36.7783 41.202 37.871 41.3868 39.1904L41.6334 40.9515C41.5224 41.0673 41.4104 41.1824 41.2965 41.2963Z" fill="white"/>
</svg>
