<svg width="50" height="50" viewBox="0 0 50 50" fill="none" xmlns="http://www.w3.org/2000/svg">
<g clip-path="url(#clip0_90_368)">
<path d="M49.9634 48.7585C49.9634 48.7585 48.7576 44.3799 48.7086 44.2073C48.007 41.7295 45.5822 39.9788 43.4602 39.3483C43.2553 39.2609 42.7211 39.0625 42.0933 39.0625H34.8073C35.5445 38.3136 36.2042 37.457 36.7833 36.4958C40.0643 35.8991 42.6275 33.2204 43.0513 29.8828H43.1153C43.6546 29.8828 44.0918 29.4455 44.0918 28.9062V17.1875C44.0918 16.6482 43.6546 16.2109 43.1153 16.2109V14.6484C43.1153 12.6709 42.7276 10.752 41.9639 8.94619C41.5967 8.07803 41.1426 7.24111 40.6133 6.45801C40.0899 5.68262 39.4873 4.95312 38.8252 4.29004C38.1622 3.62793 37.4327 3.02539 36.6573 2.50195C35.8741 1.97266 35.0372 1.51855 34.169 1.15137C32.3633 0.387695 30.4444 0 28.4668 0H28.0762C27.5381 0 27.0997 0.438477 27.0997 0.976562C27.0997 1.51465 27.5381 1.95312 28.0762 1.95312H28.4668C31.8565 1.95312 35.045 3.27344 37.4434 5.67188C39.8409 8.07031 41.1612 11.2588 41.1622 14.6484V16.2109H38.4077C36.4147 9.98604 31.9075 6.83594 24.9512 6.83594C19.9155 6.83594 16.1197 8.51338 13.6693 11.8216C12.748 13.0654 12.0219 14.5214 11.4834 16.2109H8.74028V14.6484C8.73833 8.35635 13.2413 3.08291 19.4483 2.10742C19.7061 2.06738 19.9327 1.92871 20.086 1.71777C20.2393 1.50684 20.3018 1.24902 20.2608 0.991211C20.2247 0.759863 20.1065 0.549805 19.9288 0.398535C19.7129 0.215918 19.4258 0.134863 19.1465 0.177734C19.1456 0.177734 19.1456 0.177734 19.1446 0.177734C17.4229 0.44834 15.7784 1.01953 14.2588 1.8751C12.7745 2.71104 11.4551 3.79102 10.3399 5.08398C9.21685 6.38574 8.33989 7.85742 7.73345 9.45801C7.1065 11.1143 6.78814 12.8604 6.78716 14.6484V16.2109C6.2478 16.2109 5.8106 16.6482 5.8106 17.1875V28.9062C5.8106 29.4455 6.2478 29.8828 6.78716 29.8828H10.7319C10.9958 31.3196 11.4179 32.9146 12.0909 34.4828C12.8691 36.2964 13.8772 37.8254 15.0951 39.0625H7.90679C7.54966 39.0625 7.18491 39.092 6.823 39.15C6.82251 39.1501 6.82193 39.1503 6.82144 39.1503C4.14839 39.5786 2.01099 41.5279 1.31187 44.0981C1.25503 44.3069 0.0367713 48.7585 0.0367713 48.7585C-0.0462365 49.0529 0.0135291 49.369 0.198099 49.6129C0.38267 49.8567 0.670756 50 0.976615 50H49.0235C49.3293 50 49.6175 49.8567 49.8021 49.6129C49.9867 49.369 50.0464 49.0529 49.9634 48.7585ZM10.6934 27.9297H7.76372V18.1641H10.6934V27.9297ZM39.209 18.1641H42.1387V27.9297H39.209V18.1641ZM41.0777 29.8828C40.7646 31.7079 39.5901 33.2417 37.9896 34.051C38.5598 32.6235 38.9308 31.188 39.1706 29.8828H41.0777ZM15.2388 12.9841C17.3296 10.1613 20.5066 8.78906 24.9512 8.78906C32.0175 8.78906 36.056 12.4023 37.2559 19.8176V20.5998C34.1644 20.7684 30.8611 20.2976 27.8345 19.2401C24.7532 18.1637 22.2832 16.5574 21.2274 14.9438C21.0207 14.6277 20.6501 14.4595 20.2758 14.5111C19.9016 14.5631 19.5911 14.8263 19.4783 15.1867C18.2573 19.0879 14.8146 20.617 12.6465 21.2031V19.815C13.1004 16.9694 13.9548 14.7175 15.2388 12.9841ZM12.6465 28.9062V23.2134C13.6042 22.9861 14.9214 22.5739 16.2529 21.8415C18.2711 20.7311 19.7632 19.2241 20.7059 17.3486C22.1993 18.8156 24.4697 20.1335 27.1904 21.0841C30.4178 22.2116 33.9432 22.7223 37.256 22.5572V28.9062C37.256 29.0095 37.2503 29.4955 37.2217 29.6449C36.9202 31.2215 36.4081 32.9968 35.5441 34.6647C35.4962 34.6659 28.8576 34.668 28.8576 34.668V33.6914C28.8576 33.1521 28.4204 32.7148 27.881 32.7148H23.9748C22.3593 32.7148 21.0451 34.0291 21.0451 35.6445C21.0451 37.26 22.3593 38.5742 23.9748 38.5742H27.881C28.4204 38.5742 28.8576 38.1369 28.8576 37.5977V36.6211H34.3089C32.4326 39.0668 29.5079 40.918 24.9513 40.918C16.5594 40.918 13.7009 34.6404 12.7375 29.9306C12.6867 29.6831 12.6465 29.0095 12.6465 28.9062ZM26.9043 34.668V36.6211H23.9747C23.4362 36.6211 22.9981 36.183 22.9981 35.6445C22.9981 35.1061 23.4362 34.668 23.9747 34.668H26.9043ZM2.26646 48.0469C2.26646 48.0469 3.16294 44.725 3.21636 44.5398C3.66402 42.9886 4.84839 41.7645 6.3729 41.2627L8.98228 48.0469H2.26646ZM11.075 48.0469L8.37056 41.0156H17.5859C19.6595 42.2416 22.1304 42.8711 24.9512 42.8711C27.772 42.8711 30.2429 42.2416 32.3165 41.0156H41.698L38.4528 48.0469H11.075ZM40.6038 48.0469L43.6317 41.4866C45.0524 42.1072 46.4216 43.2935 46.8307 44.7443C46.8644 44.864 47.7336 48.0469 47.7336 48.0469H40.6038Z" fill="white"/>
<path d="M19.0918 26.0254C19.6311 26.0254 20.0684 25.5882 20.0684 25.0488C20.0684 24.5095 19.6311 24.0723 19.0918 24.0723C18.5525 24.0723 18.1152 24.5095 18.1152 25.0488C18.1152 25.5882 18.5525 26.0254 19.0918 26.0254Z" fill="white"/>
<path d="M30.8105 26.0254C31.3499 26.0254 31.7871 25.5882 31.7871 25.0488C31.7871 24.5095 31.3499 24.0723 30.8105 24.0723C30.2712 24.0723 29.834 24.5095 29.834 25.0488C29.834 25.5882 30.2712 26.0254 30.8105 26.0254Z" fill="white"/>
<path d="M23.9274 30.762H25.9749C26.7386 30.762 27.4543 30.4232 27.9385 29.8326C28.4227 29.242 28.6145 28.4738 28.4646 27.7249L27.8619 24.7111C27.7561 24.1823 27.2418 23.8391 26.7128 23.945C26.1839 24.0507 25.8409 24.5653 25.9467 25.0941L26.5494 28.108C26.5967 28.3446 26.4937 28.5142 26.4279 28.5943C26.3622 28.6744 26.2161 28.8087 25.9748 28.8087H23.9273C23.686 28.8087 23.5398 28.6744 23.4742 28.5943C23.4086 28.5142 23.3055 28.3445 23.3527 28.108L23.9555 25.0941C24.0612 24.5653 23.7183 24.0507 23.1894 23.945C22.6605 23.8391 22.1461 24.1822 22.0402 24.7111L21.4375 27.7249C21.2877 28.4738 21.4795 29.242 21.9637 29.8326C22.448 30.4232 23.1638 30.762 23.9274 30.762Z" fill="white"/>
<path d="M23.6816 1.95312C24.221 1.95312 24.6582 1.5159 24.6582 0.976562C24.6582 0.437222 24.221 0 23.6816 0C23.1423 0 22.7051 0.437222 22.7051 0.976562C22.7051 1.5159 23.1423 1.95312 23.6816 1.95312Z" fill="white"/>
</g>
<defs>
<clipPath id="clip0_90_368">
<rect width="50" height="50" fill="white"/>
</clipPath>
</defs>
</svg>
