<svg width="50" height="50" viewBox="0 0 50 50" fill="none" xmlns="http://www.w3.org/2000/svg">
<path d="M14.8018 20.4033C14.6201 20.2217 14.3682 20.1172 14.1113 20.1172C13.8545 20.1172 13.6026 20.2216 13.4209 20.4033C13.2393 20.585 13.1348 20.8369 13.1348 21.0937C13.1348 21.3506 13.2393 21.6025 13.4209 21.7841C13.6025 21.9657 13.8545 22.0703 14.1113 22.0703C14.3682 22.0703 14.6201 21.9658 14.8018 21.7841C14.9834 21.6025 15.0879 21.3506 15.0879 21.0937C15.0879 20.8369 14.9834 20.585 14.8018 20.4033Z" fill="white"/>
<path d="M47.0701 0H8.20304C6.58762 0 5.27337 1.31425 5.27337 2.92968V19.1405C5.27337 20.756 6.58762 22.0702 8.20304 22.0702H9.96085C10.5002 22.0702 10.9374 21.6329 10.9374 21.0937C10.9374 20.5544 10.5002 20.1171 9.96085 20.1171H8.20304C7.66457 20.1171 7.22649 19.679 7.22649 19.1405V2.92968C7.22649 2.3912 7.66457 1.95312 8.20304 1.95312H47.0701C47.6086 1.95312 48.0466 2.3912 48.0466 2.92968V19.1405C48.0466 19.679 47.6086 20.1171 47.0701 20.1171H40.5382C40.2792 20.1171 40.0308 20.22 39.8477 20.4031L36.6319 23.6189L33.4162 20.4031C33.2331 20.22 32.9847 20.1171 32.7257 20.1171H25.11C25.0382 19.9327 24.9571 19.7508 24.8652 19.5723C24.166 18.2138 22.9757 17.2209 21.514 16.7765L20.1021 16.3472C19.6051 16.1958 19.0765 16.4607 18.8998 16.9492L16.6812 23.081C16.0659 24.7816 14.8522 26.1945 13.264 27.0595L11.1814 28.1934C10.6695 27.5722 9.89464 27.1754 9.02873 27.1754H2.78851C1.25102 27.1754 0.000244163 28.4263 0.000244163 29.9637V47.2113C4.88517e-05 48.7489 1.25092 49.9998 2.78842 49.9998H9.02863C10.0007 49.9998 10.8576 49.4995 11.3568 48.7432L12.3533 49.134C13.8184 49.7087 15.3593 50 16.9332 50H30.1097C32.0867 50 33.6951 48.3916 33.6951 46.4146C33.6951 45.7602 33.5181 45.1467 33.2106 44.6181C34.6651 44.161 35.7232 42.8002 35.7232 41.1968C35.7232 40.5258 35.5374 39.8975 35.2153 39.3599C36.6079 38.8673 37.6085 37.5381 37.6085 35.979C37.6085 34.3549 36.5228 32.9804 35.0394 32.5412C35.341 32.0162 35.5145 31.4087 35.5145 30.761C35.5145 28.7841 33.9061 27.1756 31.929 27.1756H24.0982L25.1933 23.9242C25.398 23.3164 25.4949 22.6914 25.4882 22.0703H32.3212L35.9414 25.6905C36.1321 25.8811 36.382 25.9766 36.6319 25.9766C36.8818 25.9766 37.1318 25.8811 37.3225 25.6905L40.9428 22.0702H47.0701C48.6855 22.0702 49.9998 20.756 49.9998 19.1405V2.92968C49.9998 1.31425 48.6855 0 47.0701 0ZM9.86388 47.2114C9.86378 47.672 9.48917 48.0467 9.02863 48.0467H2.78842C2.32787 48.0467 1.95326 47.672 1.95326 47.2114V29.9638C1.95326 29.5033 2.32787 29.1286 2.78842 29.1286H4.93196V41.1521C4.93196 41.6913 5.36917 42.1286 5.90852 42.1286C6.44788 42.1286 6.88508 41.6913 6.88508 41.1521V29.1286H9.02863C9.39337 29.1286 9.70343 29.364 9.817 29.6906C9.82511 29.7379 9.83683 29.7847 9.85226 29.8311C9.85919 29.8745 9.86388 29.9185 9.86388 29.9638V47.2114ZM31.9291 29.1285V29.1286C32.8292 29.1286 33.5614 29.8608 33.5614 30.7609C33.5614 31.661 32.8292 32.3933 31.9291 32.3933H26.6312C26.0918 32.3933 25.6546 32.8306 25.6546 33.3699C25.6546 33.9091 26.0918 34.3464 26.6312 34.3464L34.0232 34.3466C34.9233 34.3466 35.6555 35.0789 35.6555 35.979C35.6555 36.8791 34.9233 37.6114 34.0232 37.6114H26.6312C26.0918 37.6114 25.6546 38.0487 25.6546 38.5879C25.6546 39.1272 26.0918 39.5645 26.6312 39.5645H32.1378C33.0379 39.5645 33.7701 40.2967 33.7701 41.1968C33.7701 42.0969 33.0379 42.8291 32.1378 42.8291H26.6312C26.0918 42.8291 25.6546 43.2664 25.6546 43.8057C25.6546 44.3449 26.0918 44.7822 26.6312 44.7822H30.1098C31.0099 44.7822 31.7421 45.5146 31.7421 46.4147C31.7421 47.3148 31.0099 48.047 30.1098 48.047H16.9332C15.6044 48.047 14.3034 47.8009 13.0664 47.3158L11.8169 46.8258V30.0713L14.1978 28.7748C16.2057 27.6814 17.7398 25.8954 18.5177 23.7455L20.4209 18.4856L20.9459 18.6451C21.898 18.9347 22.6732 19.5814 23.1287 20.4661C23.5841 21.3509 23.66 22.3576 23.3423 23.3007L21.8133 27.8402C21.713 28.1383 21.7623 28.4664 21.9457 28.7217C22.1292 28.977 22.4243 29.1285 22.7388 29.1285H31.9291Z" fill="white"/>
<path d="M45.5273 9.4701C45.3423 8.90135 44.8597 8.49462 44.2677 8.40878L42.5404 8.15829L41.7674 6.59336C41.5026 6.05713 40.9667 5.72412 40.3687 5.72412C40.3687 5.72412 40.3684 5.72412 40.3683 5.72412C39.7702 5.72432 39.2342 6.05762 38.9697 6.59404L38.1976 8.15946L36.4703 8.41093C35.8784 8.49716 35.396 8.90409 35.2113 9.47303C35.0266 10.0419 35.178 10.6547 35.6065 11.0721L36.8567 12.2901L36.5621 14.0105C36.4611 14.6002 36.699 15.1846 37.1831 15.5362C37.4565 15.7347 37.7762 15.8355 38.0983 15.8355C38.3463 15.8355 38.5957 15.7756 38.8261 15.6544L40.3709 14.8418L41.9161 15.6536C42.4456 15.9317 43.0751 15.8861 43.559 15.5343C44.0428 15.1826 44.2804 14.5979 44.1791 14.0084L43.8836 12.2882L45.1333 11.0694C45.5611 10.6516 45.7122 10.0388 45.5273 9.4701ZM42.3717 11.0343C42.004 11.3927 41.8366 11.9091 41.9235 12.4152L42.1191 13.5541L41.0957 13.0164C40.6411 12.7779 40.0984 12.7779 39.6442 13.017L38.6214 13.555L38.8165 12.4161C38.9032 11.9097 38.7353 11.3935 38.3674 11.0352L37.5396 10.2288L38.6832 10.0623C39.1915 9.98836 39.6305 9.66922 39.8576 9.20868L40.3688 8.17225L40.8805 9.20838C41.1079 9.66883 41.5471 9.98768 42.0553 10.0614L43.199 10.2272L42.3717 11.0343Z" fill="white"/>
<path d="M33.1042 9.4701C32.9191 8.90135 32.4366 8.49471 31.8446 8.40878L30.1173 8.15829L29.3443 6.59336C29.0795 6.05713 28.5436 5.72412 27.9456 5.72412C27.9455 5.72412 27.9453 5.72412 27.9452 5.72412C27.3471 5.72432 26.811 6.05762 26.5465 6.59414L25.7745 8.15946L24.0472 8.41093C23.4553 8.49716 22.9729 8.90409 22.7882 9.47303C22.6035 10.0419 22.7549 10.6547 23.1834 11.0721L24.4336 12.2901L24.139 14.0105C24.038 14.6002 24.276 15.1847 24.76 15.5362C25.0333 15.7347 25.3531 15.8355 25.6751 15.8355C25.9231 15.8355 26.1725 15.7756 26.4028 15.6544L27.9476 14.8418L29.493 15.6536C30.0225 15.9317 30.6518 15.8861 31.1358 15.5343C31.6196 15.1826 31.8572 14.5979 31.7559 14.0084L31.4604 12.2882L32.7101 11.0694C33.1382 10.6516 33.2892 10.0389 33.1042 9.4701ZM29.9486 11.0343C29.5809 11.3927 29.4135 11.9091 29.5004 12.4152L29.696 13.5541L28.6726 13.0165C28.2179 12.7777 27.6752 12.778 27.221 13.017L26.1982 13.555L26.3933 12.4161C26.48 11.9097 26.3121 11.3935 25.9442 11.0352L25.1164 10.2288L26.26 10.0623C26.7682 9.98836 27.2071 9.66932 27.4345 9.20858L27.9456 8.17216L28.4572 9.20819C28.6846 9.66873 29.1238 9.98768 29.6321 10.0614L30.7758 10.2272L29.9486 11.0343Z" fill="white"/>
<path d="M20.6811 9.4701C20.4961 8.90135 20.0135 8.49462 19.4216 8.40878L17.6942 8.15829L16.9213 6.59336C16.6565 6.05713 16.1206 5.72412 15.5226 5.72412C15.5225 5.72412 15.5223 5.72412 15.5222 5.72412C14.924 5.72432 14.388 6.05762 14.1235 6.59414L13.3515 8.15946L11.6242 8.41093C11.0322 8.49716 10.5498 8.90419 10.3651 9.47313C10.1804 10.042 10.3319 10.6548 10.7603 11.0721L12.0105 12.2901L11.7159 14.0105C11.6149 14.6002 11.8529 15.1847 12.3369 15.5362C12.6102 15.7347 12.93 15.8355 13.252 15.8355C13.5 15.8355 13.7493 15.7756 13.9797 15.6544L15.5245 14.8418L17.0697 15.6536C17.5992 15.9317 18.2287 15.8861 18.7126 15.5343C19.1964 15.1826 19.434 14.5979 19.3327 14.0084L19.0372 12.2882L20.2869 11.0694C20.7151 10.6516 20.8661 10.0389 20.6811 9.4701ZM17.5256 11.0343C17.1579 11.3927 16.9904 11.9091 17.0774 12.4152L17.273 13.5541L16.2496 13.0165C15.7949 12.7777 15.2521 12.778 14.798 13.017L13.7752 13.555L13.9703 12.4158C14.0569 11.9096 13.889 11.3936 13.5212 11.0352L12.6934 10.2288L13.8369 10.0623C14.3451 9.98836 14.7841 9.66932 15.0114 9.20858L15.5226 8.17216L16.0342 9.20819C16.2615 9.66873 16.7008 9.98768 17.2091 10.0614L18.3528 10.2272L17.5256 11.0343Z" fill="white"/>
<path d="M5.90857 43.687C5.36921 43.687 4.93201 44.1243 4.93201 44.6636V44.6788C4.93201 45.2181 5.36921 45.6554 5.90857 45.6554C6.44792 45.6554 6.88512 45.2181 6.88512 44.6788V44.6636C6.88512 44.1243 6.44792 43.687 5.90857 43.687Z" fill="white"/>
</svg>
