<svg width="50" height="50" viewBox="0 0 50 50" fill="none" xmlns="http://www.w3.org/2000/svg">
<path d="M11.3281 16.2109C10.7891 16.2109 10.3516 16.6485 10.3516 17.1875C10.3516 17.7265 10.7891 18.1641 11.3281 18.1641C11.8671 18.1641 12.3047 17.7265 12.3047 17.1875C12.3047 16.6485 11.8671 16.2109 11.3281 16.2109Z" fill="white"/>
<path d="M2.92969 50H47.0703C48.6858 50 50 48.6858 50 47.0703V6.83594C50 5.22041 48.6858 3.90625 47.0703 3.90625H45.5078V2.92969C45.5078 1.31416 44.1936 0 42.5781 0C40.9626 0 39.6484 1.31416 39.6484 2.92969V3.90625H33.7891V2.92969C33.7891 1.31416 32.4749 0 30.8594 0C29.2439 0 27.9297 1.31416 27.9297 2.92969V3.90625H22.0703V2.92969C22.0703 1.31416 20.7561 0 19.1406 0C17.5251 0 16.2109 1.31416 16.2109 2.92969V3.90625H10.3516V2.92969C10.3516 1.31416 9.0374 0 7.42188 0C5.80635 0 4.49219 1.31416 4.49219 2.92969V3.90625H2.92969C1.31416 3.90625 0 5.22041 0 6.83594V47.0703C0 48.6858 1.31416 50 2.92969 50ZM47.0703 48.0469H2.92969C2.39105 48.0469 1.95312 47.6089 1.95312 47.0703V14.2578H48.0469V47.0703C48.0469 47.6089 47.6089 48.0469 47.0703 48.0469ZM41.6016 2.92969C41.6016 2.39105 42.0395 1.95312 42.5781 1.95312C43.1168 1.95312 43.5547 2.39105 43.5547 2.92969V3.90625H41.6016V2.92969ZM29.8828 2.92969C29.8828 2.39105 30.3207 1.95312 30.8594 1.95312C31.398 1.95312 31.8359 2.39105 31.8359 2.92969V3.90625H29.8828V2.92969ZM18.1641 2.92969C18.1641 2.39105 18.602 1.95312 19.1406 1.95312C19.6793 1.95312 20.1172 2.39105 20.1172 2.92969V3.90625H18.1641V2.92969ZM6.44531 2.92969C6.44531 2.39105 6.88324 1.95312 7.42188 1.95312C7.96051 1.95312 8.39844 2.39105 8.39844 2.92969V3.90625H6.44531V2.92969ZM2.92969 5.85938H4.49219V7.12891C4.49219 8.74443 5.80635 10.0586 7.42188 10.0586C7.96127 10.0586 8.39844 9.62143 8.39844 9.08203C8.39844 8.54263 7.96127 8.10547 7.42188 8.10547C6.88324 8.10547 6.44531 7.66754 6.44531 7.12891V5.85938H16.2109V7.12891C16.2109 8.74443 17.5251 10.0586 19.1406 10.0586C19.68 10.0586 20.1172 9.62143 20.1172 9.08203C20.1172 8.54263 19.68 8.10547 19.1406 8.10547C18.602 8.10547 18.1641 7.66754 18.1641 7.12891V5.85938H27.9297V7.12891C27.9297 8.74443 29.2439 10.0586 30.8594 10.0586C31.3988 10.0586 31.8359 9.62143 31.8359 9.08203C31.8359 8.54263 31.3988 8.10547 30.8594 8.10547C30.3207 8.10547 29.8828 7.66754 29.8828 7.12891V5.85938H39.6484V7.12891C39.6484 8.74443 40.9626 10.0586 42.5781 10.0586C43.1175 10.0586 43.5547 9.62143 43.5547 9.08203C43.5547 8.54263 43.1175 8.10547 42.5781 8.10547C42.0395 8.10547 41.6016 7.66754 41.6016 7.12891V5.85938H47.0703C47.6089 5.85938 48.0469 6.2973 48.0469 6.83594V12.3047H1.95312V6.83594C1.95312 6.2973 2.39105 5.85938 2.92969 5.85938Z" fill="white"/>
<path d="M38.6719 16.2109H15.2344C14.695 16.2109 14.2578 16.6481 14.2578 17.1875C14.2578 17.7269 14.695 18.1641 15.2344 18.1641H38.6719C39.2113 18.1641 39.6484 17.7269 39.6484 17.1875C39.6484 16.6481 39.2113 16.2109 38.6719 16.2109Z" fill="white"/>
<path d="M25 22.0703C19.0769 22.0703 14.2578 26.8894 14.2578 32.8125C14.2578 38.7356 19.0769 43.5547 25 43.5547C30.9231 43.5547 35.7422 38.7356 35.7422 32.8125C35.7422 26.8894 30.9231 22.0703 25 22.0703ZM25 41.6016C20.1538 41.6016 16.2109 37.6587 16.2109 32.8125C16.2109 27.9663 20.1538 24.0234 25 24.0234C29.8462 24.0234 33.7891 27.9663 33.7891 32.8125C33.7891 37.6587 29.8462 41.6016 25 41.6016Z" fill="white"/>
<path d="M28.2158 30.1689L24.0234 34.3613L21.7842 32.122C21.4027 31.7406 20.7848 31.7406 20.4033 32.122C20.0218 32.5035 20.0218 33.1215 20.4033 33.503L23.333 36.4326C23.5237 36.6234 23.7736 36.7188 24.0234 36.7188C24.2733 36.7188 24.5232 36.6234 24.7139 36.4326L29.5967 31.5498C29.9782 31.1684 29.9782 30.5504 29.5967 30.1689C29.2152 29.7874 28.5973 29.7874 28.2158 30.1689Z" fill="white"/>
</svg>
