<svg width="50" height="50" viewBox="0 0 50 50" fill="none" xmlns="http://www.w3.org/2000/svg">
<g clip-path="url(#clip0_90_320)">
<path d="M48.9605 1.74146C48.8716 1.39699 48.6031 1.12844 48.2586 1.03956C40.2825 -1.01733 31.8947 -0.000711903 24.6407 3.90134C23.0465 4.75889 21.5389 5.73888 20.1279 6.82874C16.0904 5.38869 11.5994 6.38242 8.54151 9.44028L2.42998 15.5514C2.04889 15.9329 2.04889 16.5513 2.42998 16.9327L9.23006 23.7324C9.23006 23.7328 9.23044 23.7328 9.23044 23.7332L10.1074 24.6098L9.30063 30.5378C9.25943 30.8404 9.36167 31.1444 9.57758 31.3603L10.2879 32.0706L4.45368 37.9399C4.07335 38.3225 4.07526 38.9409 4.45787 39.3208C4.84049 39.7011 5.45885 39.6992 5.83879 39.317L11.6688 33.4515L16.5489 38.332L8.32598 46.5188C7.94374 46.8995 7.94222 47.5178 8.32254 47.9001C8.51366 48.0916 8.76429 48.1877 9.01491 48.1877C9.26401 48.1877 9.51311 48.0927 9.70385 47.9031L17.9302 39.713L18.6398 40.4229C18.8244 40.6071 19.0731 40.7086 19.3302 40.7086C19.3741 40.7086 19.418 40.7059 19.4622 40.6998L25.3903 39.893L26.2673 40.77C26.2673 40.77 26.2673 40.7704 26.2676 40.7704L33.0673 47.5705C33.2581 47.7612 33.5079 47.8562 33.7578 47.8562C34.008 47.8562 34.2579 47.7612 34.4486 47.5705L40.5598 41.4589C43.6176 38.4011 44.6118 33.91 43.1713 29.8726C44.2612 28.4615 45.2412 26.9536 46.0987 25.3598C50.0012 18.1054 51.0174 9.71761 48.9605 1.74146ZM9.51426 21.2548L4.50174 16.2423L9.92243 10.8216C12.1536 8.58999 15.3107 7.69124 18.3148 8.33745C14.4016 11.8397 11.3758 16.2537 9.51426 21.2548ZM19.6785 38.699L11.3011 30.3216L11.8424 26.3447L23.6553 38.1577L19.6785 38.699ZM39.1789 40.0776L33.7578 45.4983L28.7457 40.4858C33.7467 38.6242 38.1603 35.5984 41.6626 31.6853C42.3088 34.6894 41.4101 37.846 39.1789 40.0776ZM27.3335 38.9176L27.2171 38.9576L11.0424 22.7829L11.0825 22.6666C16.1934 7.81179 31.9805 -0.829264 47.2084 2.79165C50.8289 18.0192 42.1887 33.8067 27.3335 38.9176Z" fill="white"/>
<path d="M38.0691 10.7345L25.2517 14.1689C24.9149 14.2593 24.6517 14.5225 24.5613 14.8597C24.4709 15.1966 24.5674 15.5563 24.8138 15.8031L26.7181 17.707L22.8809 21.5438C22.4998 21.9253 22.4998 22.5437 22.8809 22.9251C23.2624 23.3062 23.8807 23.3062 24.2622 22.9251L28.7895 18.3975C29.171 18.0164 29.171 17.398 28.7895 17.0165L27.391 15.6181L36.9411 13.0592L34.3822 22.6089L32.9838 21.2104C32.8006 21.0273 32.5523 20.9247 32.2933 20.9247C32.0343 20.9247 31.7856 21.0273 31.6025 21.2104L23.8098 29.0035C23.4283 29.3849 23.4283 30.0033 23.8098 30.3848C24.0005 30.5755 24.2504 30.6705 24.5002 30.6705C24.7501 30.6705 25 30.5755 25.1907 30.3848L32.2929 23.2822L34.1968 25.1861C34.4436 25.4329 34.8034 25.529 35.1402 25.439C35.4774 25.3486 35.7406 25.0854 35.8307 24.7486L39.265 11.9308C39.3554 11.594 39.2593 11.2342 39.0125 10.9874C38.7657 10.7406 38.406 10.6441 38.0691 10.7345Z" fill="white"/>
<path d="M9.37392 40.6259C8.99283 40.2445 8.37447 40.2445 7.993 40.6259L0.286163 48.3328C-0.0953064 48.7139 -0.0953064 49.3322 0.286163 49.7137C0.476898 49.9044 0.726761 49.9998 0.976624 49.9998C1.22649 49.9998 1.47673 49.9044 1.66708 49.7137L9.37392 42.0069C9.75539 41.6258 9.75539 41.0074 9.37392 40.6259Z" fill="white"/>
<path d="M2.45825 42.293C2.71498 42.293 2.96675 42.1896 3.14871 42.0069C3.33029 41.8253 3.43481 41.5743 3.43481 41.3164C3.43481 41.0597 3.33029 40.8079 3.14871 40.6263C2.96675 40.4444 2.71498 40.3398 2.45825 40.3398C2.20038 40.3398 1.94937 40.4444 1.76779 40.6263C1.58621 40.8079 1.48169 41.0597 1.48169 41.3164C1.48169 41.5743 1.58621 41.8253 1.76779 42.0069C1.94937 42.1896 2.20114 42.293 2.45825 42.293Z" fill="white"/>
<path d="M19.6709 24.754L19.6625 24.7612C19.2608 25.1217 19.2276 25.7393 19.5881 26.1406C19.7808 26.3554 20.0474 26.4649 20.3152 26.4649C20.5475 26.4649 20.7806 26.3825 20.9671 26.2146L20.9755 26.2074C21.3768 25.8469 21.4104 25.2296 21.0499 24.8283C20.6894 24.4267 20.0722 24.3935 19.6709 24.754Z" fill="white"/>
</g>
<defs>
<clipPath id="clip0_90_320">
<rect width="50" height="50" fill="white"/>
</clipPath>
</defs>
</svg>
