<?xml version="1.0" encoding="utf-8"?><svg viewBox="0 0 502.66 502.66" xmlns="http://www.w3.org/2000/svg" xmlns:xlink="http://www.w3.org/1999/xlink"><style>:root>svg{display:none}:root>svg:target{display:block}</style><svg viewBox="0 0 18 18" id="bg-login" xmlns="http://www.w3.org/2000/svg"><path d="M9 0C4.05 0 0 4.05 0 9s4.05 9 9 9 9-4.05 9-9-4.05-9-9-9zM5.4 15.21v-1.8c0-.27.18-.54.36-.72 1.89-1.35 4.5-1.35 6.48 0 .27.18.36.45.36.72v1.8c-1.08.63-2.25.99-3.6.99s-2.52-.36-3.6-.99zm9-1.44v-.27c0-.9-.45-1.71-1.17-2.25-2.52-1.8-5.94-1.71-8.46 0-.72.45-1.17 1.35-1.17 2.25v.27C2.52 12.51 1.8 10.8 1.8 9c0-3.96 3.24-7.2 7.2-7.2s7.2 3.24 7.2 7.2c0 1.8-.72 3.51-1.8 4.77z"/><path d="M9 3.6c-1.53 0-2.7 1.17-2.7 2.7C6.3 7.83 7.47 9 9 9c1.53 0 2.7-1.17 2.7-2.7 0-1.53-1.17-2.7-2.7-2.7zm0 3.6c-.54 0-.9-.36-.9-.9s.36-.9.9-.9.9.36.9.9-.36.9-.9.9z"/></svg><svg viewBox="0 0 30 30" id="cart" xmlns="http://www.w3.org/2000/svg"><path d="M23.753 21.247a3.745 3.745 0 00-3.74 3.74 3.745 3.745 0 003.74 3.741 3.745 3.745 0 003.741-3.74 3.745 3.745 0 00-3.74-3.741zm0 5.237a1.498 1.498 0 01-1.496-1.496c0-.826.671-1.497 1.496-1.497s1.497.671 1.497 1.497c0 .825-.672 1.496-1.497 1.496zM29.762 6.79a1.12 1.12 0 00-.884-.431H6.927l-1.01-4.226a1.123 1.123 0 00-1.092-.861H1.122a1.122 1.122 0 100 2.244H3.94l3.647 15.26c.12.506.572.862 1.091.862h17.47c.515 0 .965-.352 1.089-.852l2.73-11.035c.083-.335.007-.69-.205-.961zm-4.493 10.604H9.564l-2.1-8.79h19.98l-2.175 8.79zm-15.094 3.853a3.745 3.745 0 00-3.741 3.74 3.745 3.745 0 003.74 3.741 3.745 3.745 0 003.741-3.74 3.745 3.745 0 00-3.74-3.741zm0 5.237a1.498 1.498 0 01-1.497-1.496 1.498 1.498 0 012.993 0c0 .825-.671 1.496-1.496 1.496z"/></svg><svg viewBox="0 0 502.664 502.664" id="icon" xmlns="http://www.w3.org/2000/svg"><path d="M153.821 358.226L0 274.337v-46.463l153.821-83.414v54.574L46.636 250.523l107.185 53.431v54.272zm26.273 29.358L282.103 115.08h32.227L212.084 387.584h-31.99zm168.749-29.358v-54.272l107.164-52.999-107.164-52.59v-53.927l153.821 83.522v46.183l-153.821 84.083z"/></svg></svg>